<svg width="297" height="235" viewBox="0 0 297 235" fill="none" xmlns="http://www.w3.org/2000/svg">
<path fill-rule="evenodd" clip-rule="evenodd" d="M135.551 183.725C130.389 190.321 116.298 185.226 110.245 181.374C104.192 177.521 106.516 173.789 106.516 171.964C106.516 170.138 106.1 167.906 105.088 166.328C104.076 164.75 88.0676 157.984 88.0676 150.552C88.0676 143.62 92.8659 137.278 99.5783 134.405C110.245 129.839 115.463 132.742 125.32 136.752C135.176 140.761 134.366 150.552 134.366 150.552C134.366 150.552 142.45 174.91 135.551 183.725Z" fill="#E7EAEE"/>
<path fill-rule="evenodd" clip-rule="evenodd" d="M10.6982 155.548C11.1402 156.794 12.413 157.607 13.7174 157.827C15.0217 158.047 16.3577 157.766 17.6268 157.393C22.158 156.062 26.1998 153.588 30.249 151.11C32.3101 149.848 34.3731 148.586 36.5035 147.472C43.3231 143.906 51.0933 141.843 58.7432 142.678C61.2853 142.955 63.8562 143.575 65.9663 145.02C68.0765 146.464 69.663 148.85 69.6374 151.407C69.6147 153.689 68.3653 155.764 67.0562 157.633C66.0643 159.05 64.9895 160.45 63.5704 161.439C62.1346 162.439 60.4158 162.964 58.6885 163.243C55.6451 163.735 52.3443 163.446 49.7882 161.723C47.2321 159.999 45.6737 156.613 46.6956 153.704C47.1867 152.307 48.203 151.141 49.3823 150.244C51.7287 148.461 55.1102 147.709 57.6495 149.205C60.1888 150.701 60.9521 154.852 58.6051 156.634C57.5748 157.417 56.2149 157.617 54.9213 157.608C54.1272 157.602 53.2781 157.505 52.6699 156.995C52.0616 156.484 51.861 155.432 52.459 154.909C53.1447 154.31 54.4319 155.131 54.178 156.006C55.8064 157.161 58.3768 155.668 58.5332 153.677C58.6897 151.687 56.8831 149.899 54.9034 149.64C52.9237 149.381 50.9418 150.374 49.5488 151.805C48.8666 152.505 48.2871 153.326 47.9839 154.256C47.2371 156.546 48.3616 159.172 50.2819 160.626C52.2023 162.079 54.7494 162.497 57.1473 162.271C59.4787 162.051 61.7932 161.239 63.5748 159.719C64.5092 158.922 65.2785 157.951 66.0019 156.959C67.0443 155.529 68.034 153.961 68.1986 152.199C68.4349 149.669 66.8536 147.221 64.7244 145.836C62.5951 144.45 60.0038 143.967 57.4698 143.788C52.4178 143.431 47.2906 144.177 42.5502 145.96C38.5802 147.453 34.9163 149.645 31.2577 151.834C26.9021 154.439 22.5541 157.04 17.7062 158.452C15.073 159.219 11.5333 159.232 10.3695 156.749C10.1612 156.304 10.2087 155.582 10.6982 155.548Z" fill="#B2C3D6"/>
<path fill-rule="evenodd" clip-rule="evenodd" d="M243.067 214.76L243.241 214.8L243.587 214.885C249.184 216.283 254.639 218.254 259.838 220.757C262.748 222.159 265.777 223.769 268.997 223.522C269.92 223.451 270.829 223.227 271.755 223.217C274.89 223.183 277.535 225.551 280.6 226.213C283.258 226.788 286 226.041 288.715 225.887C291.429 225.733 294.568 226.449 295.825 228.86C295.999 229.196 296.133 229.579 296.05 229.949C295.939 230.446 295.489 230.758 295.019 230.993L294.925 231.039L294.725 231.132C291.111 232.751 287.253 234.407 283.337 233.932L283.064 233.895L282.656 233.842C278.987 233.427 275.284 234.62 271.579 234.516C263.931 234.302 256.135 233.473 248.786 231.922L248 231.753L247.604 231.667C235.004 228.976 228.666 230.926 222.777 231.076L222.589 231.08L222.222 231.085C219.953 231.096 212.422 231.05 209.73 231.756C208.372 232.113 207.47 230.055 208.187 228.847C208.874 227.688 210.255 227.198 211.516 226.695L211.672 226.632L211.799 226.58C213.021 226.066 214.295 225.247 214.531 223.975L214.552 223.842L214.571 223.715C214.865 222.101 216.792 221.384 218.446 221.016L218.579 220.987L219.528 220.786C222.066 220.259 224.653 219.821 227.203 220.218C228.647 220.442 234.162 216.987 235.815 215.565C237.734 213.914 240.561 214.182 243.067 214.76ZM264.153 108.057L263.947 108.124C262.22 108.621 260.57 109.379 259.079 110.384C256.532 112.101 254.386 114.521 251.485 115.53C249.48 116.229 247.221 116.169 245.255 115.366C245.936 116.845 247.826 117.36 249.445 117.192C254.175 116.701 257.399 112.249 261.65 110.119C262.588 109.649 263.575 109.297 264.59 109.05C265.013 110.01 265.434 110.98 265.854 111.956L265.852 111.968C265.528 112.206 265.234 112.483 264.98 112.799C264.006 114.015 263.764 115.858 264.631 117.152C265.503 118.451 267.098 118.847 268.722 118.799L268.723 118.793L269.31 120.233C270.287 122.641 271.256 125.091 272.218 127.584L272.14 127.626C271.907 127.743 271.674 127.863 271.443 127.983C265.127 131.285 259.404 135.895 252.566 137.905C251.297 138.278 249.961 138.559 248.657 138.339C247.353 138.119 246.08 137.306 245.638 136.059C245.148 136.094 245.101 136.816 245.309 137.26C246.473 139.744 250.013 139.731 252.646 138.964C259.685 136.914 265.67 132.357 272.154 128.919L272.629 128.67L273.377 130.662C305.938 219.693 218.102 213.103 192.86 206.566C155.435 196.874 44.2723 233.061 19.9073 206.566C9.77186 195.544 4.71527 181.037 3.8325 164.809C11.2371 161.743 17.6795 156.378 25.2285 153.538C29.969 151.756 35.0961 151.009 40.1481 151.366C42.6821 151.546 45.2734 152.029 47.4027 153.414C49.5319 154.8 51.1132 157.248 50.8769 159.777C50.7123 161.539 49.7227 163.107 48.6803 164.537C47.9568 165.53 47.1875 166.501 46.2531 167.298C44.4715 168.817 42.157 169.63 39.8257 169.849C37.4277 170.075 34.8807 169.658 32.9603 168.204C31.0399 166.75 29.9154 164.124 30.6622 161.834C30.9655 160.904 31.5449 160.084 32.2272 159.383C33.6202 157.953 35.602 156.959 37.5817 157.218C39.5615 157.478 41.368 159.265 41.2115 161.256C41.0551 163.246 38.4847 164.739 36.8563 163.584C37.1102 162.71 35.823 161.889 35.1373 162.488C34.5394 163.01 34.7399 164.063 35.3482 164.573C35.9564 165.084 36.8056 165.18 37.5996 165.186C38.8933 165.196 40.2532 164.995 41.2834 164.213C43.6304 162.43 42.8671 158.279 40.3278 156.783C37.7885 155.287 34.407 156.039 32.0606 157.823C30.8814 158.719 29.865 159.885 29.374 161.283C28.352 164.191 29.9104 167.578 32.4665 169.301C35.0226 171.024 38.3235 171.313 41.3668 170.822C43.0941 170.543 44.8129 170.017 46.2487 169.017C47.6678 168.028 48.7427 166.628 49.7346 165.212C51.0437 163.342 52.293 161.267 52.3161 158.985C52.3413 156.428 50.7548 154.043 48.6446 152.598C46.5345 151.154 43.9637 150.533 41.4215 150.256C33.7716 149.422 26.0014 151.485 19.1819 155.05C13.9643 157.778 9.15123 161.398 3.78015 163.708C3.23417 150.92 5.24407 137.099 9.37218 123.094L9.70243 123.027C14.802 121.965 20.0011 121.381 25.2092 121.285C28.6648 121.222 32.1659 121.38 35.4806 122.359C36.8721 122.77 38.2388 123.327 39.6843 123.452C42.4572 123.692 45.2803 122.324 47.9725 123.03C49.3307 123.387 50.2328 121.329 49.5162 120.121C48.7995 118.914 47.3319 118.433 46.0302 117.906C44.7286 117.379 43.3258 116.509 43.1508 115.116C42.9313 113.367 40.8469 112.629 39.1235 112.261L38.4914 112.127C35.8527 111.571 33.156 111.079 30.4999 111.492C29.0556 111.716 27.5386 112.198 26.1792 111.661C24.1504 110.86 23.5411 108.261 21.8874 106.839C20.1825 105.372 17.76 105.42 15.4829 105.854C24.1749 84.8148 37.2431 64.1496 53.2063 46.7421L53.2151 46.7523C53.3069 46.7639 53.3985 46.7747 53.4899 46.785C59.515 47.4689 65.6891 46.8078 71.4329 44.8637C75.5394 43.4738 79.9926 45.3951 83.7232 47.6036C87.4538 49.8121 91.2453 52.4368 95.5787 52.5643C98.682 52.6555 101.65 51.4383 104.647 50.6278C117.396 47.1796 130.8 51.0593 143.831 53.2091C147.844 53.8711 152.36 54.2512 155.593 51.7841C154.616 49.647 152.277 48.4122 149.957 48.0389C147.637 47.6655 145.271 47.998 142.926 48.1497C134.745 48.6792 126.428 46.9444 119.14 43.1882C115.14 41.1264 110.398 41.4356 105.923 40.9627C101.447 40.4898 96.4729 38.6612 94.9114 34.4405C93.5335 30.7163 89.6398 28.2989 85.6873 27.9166C81.7349 27.5343 77.7825 28.9169 74.3846 30.9718C70.9868 33.0266 68.0416 35.7343 65.0162 38.3062C63.9042 39.2514 62.7424 40.2009 61.3551 40.6538C60.5721 40.9095 59.7536 40.9952 58.928 41.0387L58.65 41.0468C114.969 -15.4598 202.751 -30.7201 264.153 108.057ZM266.288 112.968C266.389 113.205 266.491 113.445 266.594 113.687L268.28 117.722C267.329 117.67 266.424 117.379 265.849 116.65C265.024 115.603 265.289 113.962 266.232 113.021L266.288 112.968ZM43.0309 76.0207L42.7171 76.1871C42.2364 76.446 41.7733 76.7143 41.1008 77.1203L39.5101 78.088C37.4231 79.3444 36.2869 79.9078 34.8498 80.3302C34.2153 80.5167 33.7547 80.5794 33.3334 80.5084C32.866 80.4296 32.474 80.1471 32.3485 79.7933L32.2385 79.4831L31.9101 79.506C31.3161 79.5476 31.1903 80.1907 31.4044 80.6474C31.9689 81.8522 33.5198 82.0933 35.1278 81.6249C36.7602 81.1494 38.0306 80.5309 40.3462 79.1674L41.8297 78.2851C43.7482 77.1503 44.7559 76.6275 46.0297 76.1484C48.0455 75.3903 50.2265 75.0728 52.3748 75.2247C53.6316 75.3136 54.586 75.5589 55.3434 76.0517C56.2104 76.6158 56.7503 77.5569 56.6685 78.4325C56.6156 78.9991 56.3438 79.5389 55.7886 80.3005C55.4125 80.8165 55.1225 81.155 54.7955 81.4339C54.1244 82.0063 53.2183 82.355 52.2236 82.4488C51.1765 82.5474 50.2098 82.3355 49.5216 81.8146C48.7826 81.2552 48.4131 80.2839 48.6665 79.5071C48.7677 79.1967 48.9666 78.8932 49.2497 78.6025C49.8222 78.0147 50.563 77.6958 51.2262 77.7826C51.9104 77.8722 52.4858 78.4887 52.4389 79.0858L52.4301 79.1532C52.3495 79.5977 51.8341 79.9349 51.436 79.8728L51.3936 79.864L51.3924 79.8543C51.2523 79.261 50.4432 78.8825 49.9279 79.3327C49.4577 79.7435 49.5581 80.5098 50.0267 80.903C50.354 81.1777 50.7513 81.2687 51.287 81.2726C52.0457 81.2781 52.6716 81.1324 53.164 80.7584C54.4244 79.8011 54.0995 77.6119 52.7038 76.7896C51.4939 76.0768 49.8443 76.3306 48.6045 77.2728C47.9793 77.7481 47.5138 78.3296 47.2825 78.9879C46.7836 80.4076 47.4757 82.1048 48.8021 82.999C49.9386 83.7652 51.4341 83.987 53.0076 83.7329C53.9151 83.5863 54.6859 83.3141 55.3221 82.871C55.9099 82.4617 56.3615 81.9463 56.9546 81.0991C57.7612 79.947 58.1527 79.0988 58.1626 78.1306C58.1745 76.9128 57.4613 75.7229 56.3676 74.9743C55.4666 74.3575 54.3644 74.0241 53.0094 73.8763C49.7569 73.5216 46.3002 74.3114 43.0309 76.0207Z" fill="#B2C3D6"/>
<path fill-rule="evenodd" clip-rule="evenodd" d="M234.154 168.931C232.796 169.442 231.14 169.022 230.191 167.925C229.707 167.366 228.776 167.705 228.225 168.197C227.674 168.689 227.131 169.342 226.393 169.337C225.636 169.333 225.057 168.576 224.975 167.824C224.893 167.072 225.177 166.333 225.455 165.63C224.42 165.827 223.333 166.021 222.331 165.694C221.33 165.368 220.477 164.329 220.741 163.31C220.837 162.937 221.068 162.611 221.334 162.333C222.215 161.408 223.541 160.929 224.809 161.076C225.427 161.148 225.643 160.278 225.59 159.658C225.49 158.478 225.299 157.265 225.63 156.128C225.962 154.991 227.015 153.952 228.189 154.107C229.679 154.305 230.304 156.104 230.47 157.598C230.526 158.109 230.951 158.808 231.349 158.483C232.628 157.441 234.672 157.499 235.89 158.613C236.36 159.043 236.719 159.646 236.686 160.283C236.648 161.024 236.095 161.644 235.479 162.057C234.863 162.471 234.159 162.745 233.56 163.183C234.865 164.057 236.235 165.371 235.967 166.919C235.806 167.85 235.039 168.599 234.154 168.931ZM228.394 163.898C228.426 164.048 228.459 164.199 228.491 164.35C227.4 164.897 227.063 166.266 226.846 167.467C227.172 167.712 227.624 167.393 227.857 167.059C228.367 166.327 228.608 165.446 228.982 164.637C229.356 163.827 229.937 163.03 230.793 162.782C231.149 162.678 231.527 162.678 231.891 162.607C232.666 162.454 233.337 161.988 233.982 161.533C234.343 161.279 234.723 160.999 234.871 160.584C235.201 159.655 234.047 158.747 233.077 158.924C232.107 159.102 231.405 159.929 230.835 160.734C230.265 161.538 229.691 162.419 228.786 162.81C228.524 162.923 228.222 162.99 227.953 162.894C227.684 162.798 227.477 162.494 227.568 162.223C227.659 161.952 228.106 161.872 228.234 162.128C228.46 162.024 228.568 161.719 228.457 161.495C227.307 161.7 226.156 161.905 225.006 162.11C224.374 162.222 223.718 162.345 223.197 162.72C222.677 163.095 222.335 163.803 222.584 164.394C224.254 165.498 226.45 163.421 228.394 163.898ZM231.293 164.01C230.505 164.161 230.207 165.22 230.511 165.963C230.816 166.706 231.497 167.211 232.1 167.741C232.683 168.254 233.699 168.017 234.116 167.361C234.532 166.706 234.399 165.799 233.928 165.181C233.457 164.563 232.71 164.206 231.95 164.045C231.734 164 231.51 163.968 231.293 164.01ZM229.187 158.904C229.142 157.751 229.027 156.45 228.131 155.722C227.858 155.5 227.508 155.894 227.397 156.228C227.115 157.081 226.984 157.984 227.014 158.881C227.028 159.33 227.09 159.797 227.34 160.17C227.59 160.543 228.076 160.79 228.499 160.64C229.129 160.416 229.214 159.573 229.187 158.904V158.904Z" fill="#FF6635"/>
<path d="M129.193 187.377C107.387 185.952 86.9641 171.931 77.3632 152.301C67.7624 132.671 69.1317 108.208 80.4477 89.5133C91.7636 70.8191 112.541 58.3284 134.325 56.6088C139.959 56.1641 145.714 56.4057 151.113 58.072C156.978 59.8818 162.25 63.311 168.141 65.0329C176.241 67.4002 184.855 65.6139 192.136 61.3486C197.55 58.1772 202.442 54.0431 208.257 51.6852C215.05 48.93 223.006 49.9574 229.496 53.3673C235.986 56.7773 241.127 62.3604 245.088 68.5294C256.882 86.8983 258.631 109.74 260.046 131.524C260.823 143.493 261.539 155.899 257.262 167.105C253.38 177.276 245.72 185.517 237.728 192.908C229.253 200.746 220.131 207.994 209.93 213.398C190.048 223.931 166.788 226.978 144.378 224.967C121.967 222.955 100.249 216.122 79.3368 207.819C67.6646 203.184 55.0801 215.679 42.7914 213.089C35.1987 211.489 29.8783 204.538 22.6628 201.684C14.9087 198.617 5.31061 201.086 0 207.515C4.64777 196.266 20.5588 191.585 30.5574 198.526C35.6171 202.038 42.4009 201.819 48.3826 200.351C54.3643 198.883 60.0892 196.316 66.1985 195.533C74.9427 194.413 83.6889 197.027 92.4768 197.726C103.227 198.581 113.975 196.563 124.57 194.555C135.982 192.391 147.393 190.228 158.805 188.065C164.311 187.021 169.911 185.945 174.868 183.33C180.45 180.384 184.99 175.507 187.527 169.728C168.52 185.657 139.955 186.495 129.193 187.377Z" fill="white"/>
<path fill-rule="evenodd" clip-rule="evenodd" d="M137.175 184.266C132.013 190.862 117.921 185.767 111.869 181.915C105.816 178.062 108.14 174.33 108.14 172.505C108.14 170.679 107.724 168.447 106.712 166.869C105.699 165.292 89.6914 158.525 89.6914 151.093C89.6914 144.161 94.4897 137.819 101.202 134.946C111.869 130.38 117.087 133.283 126.943 137.293C136.8 141.302 135.99 151.093 135.99 151.093C135.99 151.093 144.073 175.451 137.175 184.266Z" fill="#E7EAEE"/>
<path d="M105.5 136L104.5 130L121.5 133L132 149L141 164L143.5 173.5L138.5 184.5H133L115 157L105.5 136Z" fill="white"/>
<path fill-rule="evenodd" clip-rule="evenodd" d="M122.098 91.8241C121.316 89.9242 120.144 87.6916 118.092 87.6155C117.531 87.5948 116.982 87.7512 116.429 87.8451C113.482 88.3461 109.849 84.6402 108.744 84.3399C107.638 84.0397 106.299 86.1235 104.899 86.7491C103.499 87.3747 102.029 88.3739 101.825 89.8938C101.662 91.11 102.371 92.3877 101.942 93.5373C101.333 95.169 98.8727 95.4474 98.2264 97.0645C97.6613 98.4784 98.8106 99.9589 99.9193 101.002C102.392 103.33 105.316 105.787 105.559 109.174C105.651 110.442 106.837 111.303 107.88 112.031C111.723 114.71 115.123 118.023 117.901 121.795C117.266 120.917 117.598 119.637 118.284 118.797C118.97 117.957 119.937 117.404 120.757 116.695C122.364 115.306 123.401 113.326 125.097 112.048C127.232 110.438 130.053 110.184 132.685 109.713C135.317 109.242 138.166 108.301 139.479 105.971C139.606 105.745 139.72 105.493 139.695 105.234C139.623 104.498 138.647 104.332 138.027 103.931C136.864 103.178 136.949 101.495 136.549 100.169C135.968 98.2383 134.154 96.8804 132.224 96.2988C130.294 95.7172 128.236 95.7843 126.221 95.8567C124.169 95.9304 122.879 93.7239 122.098 91.8241Z" fill="#E7EAEE"/>
<path d="M197.909 112.906C197.977 113.496 198.355 113.999 198.737 114.455C200.664 116.75 203.141 118.69 206.038 119.458C211.399 120.88 217.163 117.952 220.663 113.65C224.164 109.348 225.862 103.894 227.418 98.5706C227.868 97.0337 228.535 95.2629 230.077 94.8322C231.744 94.3667 233.133 93.0073 233.633 91.3504C234.134 89.6935 233.731 87.7928 232.6 86.4819C231.322 84.9997 228.567 84.5736 227.593 86.2711C227.214 86.9307 226.289 87.0839 225.566 86.8481C224.843 86.6123 224.258 86.0887 223.646 85.6372C219.855 82.841 214.798 82.6818 210.088 82.6331C208.597 82.6176 207.088 82.6042 205.64 82.9562C202.645 83.6838 200.223 85.8838 197.333 86.9563C193.639 88.3275 189.258 87.6555 186.145 85.2403C189.526 90.5922 192.349 96.2966 194.553 102.231C194.714 103.423 197.518 109.545 197.909 112.906Z" fill="white"/>
<path fill-rule="evenodd" clip-rule="evenodd" d="M147.103 79.1463C150.097 80.0006 152.903 77.2086 155.999 76.8795C158.528 76.6106 161.028 78.0207 163.549 77.6768C164.459 77.5527 165.533 76.7044 165.054 75.9208C164.774 75.4633 164.144 75.4075 163.608 75.4023C160.694 75.3738 157.779 75.3453 154.865 75.3168C153.918 75.3076 152.89 75.2709 152.154 74.6734C150.623 73.4296 148.759 72.6677 146.879 72.0707C144.307 71.2543 141.648 70.7133 138.96 70.4828C136.025 70.2311 133.059 70.3502 130.155 70.8364C129.015 72.3161 127.875 73.7959 126.736 75.2757C125.337 77.0922 123.461 79.111 121.199 78.7361C118.247 78.2469 115.144 78.7174 112.47 80.0596C115.16 79.1711 118.137 79.1807 120.82 80.0863C122.524 80.6612 124.099 81.5809 125.821 82.0977C130.103 83.3828 134.7 82.0457 138.885 80.4732C141.53 79.4789 144.385 78.3708 147.103 79.1463Z" fill="#E7EAEE"/>
<path fill-rule="evenodd" clip-rule="evenodd" d="M141.152 129.598C141.74 131.348 142.944 132.881 144.309 134.124C145.585 135.288 147.62 136.28 147.366 137.989C149.896 135.315 153.681 133.88 157.348 134.206C158.592 134.316 159.813 134.616 161.058 134.713C165.631 135.068 169.921 132.695 173.891 130.4C176.743 128.751 179.594 127.102 182.446 125.454C183.107 124.081 182.595 122.366 181.574 121.234C180.553 120.103 179.118 119.444 177.696 118.896C176.154 118.302 174.549 117.798 172.898 117.764C171.286 117.731 169.177 117.871 168.595 116.368C167.822 114.373 165.936 112.853 163.823 112.522C161.709 112.19 159.448 113.06 158.102 114.723C156.709 116.444 154.432 117.106 152.351 117.864C149.83 118.781 147.407 119.967 145.135 121.393C143.23 122.589 141.26 124.258 141.152 126.504C141.107 127.46 140.848 128.691 141.152 129.598Z" fill="#E7EAEE"/>
<path fill-rule="evenodd" clip-rule="evenodd" d="M158.568 153.483C158.726 154.154 159.473 154.826 160.04 154.432C162.997 152.374 165.966 150.31 169.17 148.662C171.234 147.601 173.443 146.677 175.05 145.003C173.101 145.952 170.8 145.808 168.677 145.369C166.554 144.93 164.474 144.218 162.31 144.091C160.456 143.982 158.578 144.314 156.875 145.052C155.85 145.496 154.843 146.132 154.318 147.118C153.793 148.103 153.917 149.499 154.835 150.136C155.824 150.822 157.416 150.5 158.107 151.486C158.502 152.051 158.41 152.811 158.568 153.483Z" fill="#E7EAEE"/>
<path fill-rule="evenodd" clip-rule="evenodd" d="M237.728 188.578C229.253 196.415 220.132 203.664 209.931 209.068C190.048 219.6 166.788 222.647 144.378 220.636C121.968 218.625 100.249 211.792 79.3371 203.488C73.423 201.14 126.599 217.948 169.221 213.863C210.719 209.885 241.671 184.931 237.728 188.578Z" fill="#E7EAEE"/>
<path fill-rule="evenodd" clip-rule="evenodd" d="M186.774 89.6309C191.198 97.5562 196.83 103.215 193.243 106.813C190.134 109.934 191.219 104.505 187.69 103.341C185.348 102.568 180.35 104.162 175.977 103.979C169.951 103.726 169.116 107.695 164.63 107.484C157.648 107.156 148.147 102.574 145.227 101.446C141.722 100.092 142.771 95.3997 145.227 93.1745C146.131 92.3553 149.093 94.7529 149.42 93.6554C150.635 89.5772 147.999 85.9381 150.011 85.3935C150.937 85.1431 154.315 86.2481 155.594 87.5585C157.096 89.0972 158.607 91.387 161.709 90.4562C167.454 88.7326 166.716 84.9766 171.206 84.9766C175.695 84.9766 181.563 88.2653 184.39 89.2329C187.217 90.2005 182.349 81.7057 186.774 89.6309Z" fill="#E7EAEE"/>
<ellipse cx="202.521" cy="110.92" rx="2.7067" ry="2.70666" fill="#FF6635"/>
<path fill-rule="evenodd" clip-rule="evenodd" d="M233.633 91.3504C234.274 89.6962 233.731 87.7928 232.6 86.4819C231.322 84.9997 228.567 84.5736 227.593 86.2711C227.214 86.9307 226.289 87.0839 225.566 86.8481C224.843 86.6123 224.258 86.0887 223.646 85.6372C219.855 82.841 214.798 82.6818 210.088 82.6331C208.597 82.6176 207.088 82.6042 205.64 82.9562C202.645 83.6838 200.223 85.8838 197.333 86.9563C193.639 88.3275 189.258 87.6555 186.145 85.2403C187.403 87.2327 190.863 93.6735 190.863 93.6735C190.863 93.6735 190.24 90.6648 191.171 90.3886C192.881 89.8809 195.057 90.906 196.738 90.67C203.001 89.7907 206.315 86.7381 208.749 86.4819C225.566 84.7119 231.968 95.6481 233.633 91.3504Z" fill="#E7EAEE"/>
<path fill-rule="evenodd" clip-rule="evenodd" d="M163.218 160.391C163.37 159.743 163.666 159.042 164.286 158.8C165.651 158.265 166.72 160.342 168.181 160.454C168.979 160.515 169.694 159.968 170.483 159.834C171.792 159.611 173.154 160.772 173.142 162.099C173.131 163.224 172.302 164.206 172.228 165.329C171.49 165.201 170.66 165.503 170.28 166.149C169.899 166.795 170.097 167.753 170.76 168.103C171.423 168.453 172.398 167.965 172.422 167.215C172.434 166.811 172.207 166.439 172.147 166.038C172.088 165.638 172.34 165.121 172.74 165.182C173.514 165.68 173.933 166.676 173.746 167.577C173.559 168.479 172.78 169.227 171.872 169.377C171.593 169.423 171.296 169.42 171.049 169.558C170.628 169.794 170.514 170.332 170.351 170.786C170.035 171.667 169.349 172.436 168.462 172.735C167.574 173.034 166.5 172.798 165.903 172.076C165.307 171.355 165.316 170.168 166 169.529C165.578 169.315 165.146 169.757 164.749 170.015C163.751 170.664 162.261 170.012 161.844 168.897C161.426 167.782 161.935 166.467 162.844 165.699C163.134 165.453 163.503 165.139 163.388 164.776C162.94 163.365 162.881 161.833 163.218 160.391ZM167.595 165.726C167.236 167.212 166.877 168.702 166.69 170.219C166.635 170.671 166.627 171.208 166.985 171.49C167.371 171.794 167.952 171.606 168.333 171.296C169.357 170.464 169.58 168.809 168.813 167.735C168.273 166.979 168.764 165.899 169.45 165.272C170.135 164.645 171.019 164.207 171.517 163.423C172.014 162.638 171.806 161.304 170.889 161.158C170.174 161.045 169.392 161.242 168.894 161.767C168.444 162.242 168.274 162.909 168.121 163.545C167.945 164.272 167.77 164.999 167.595 165.726ZM166.345 164.644C167.018 164.269 167.13 163.333 166.958 162.583C166.761 161.723 166.294 160.927 165.639 160.337C165.483 160.196 165.305 160.062 165.096 160.042C164.532 159.988 164.266 160.713 164.19 161.274C164.079 162.101 163.974 162.978 164.313 163.74C164.653 164.502 165.616 165.05 166.345 164.644ZM163.221 168.644C163.689 169.219 164.656 168.885 165.143 168.327C165.631 167.769 165.938 167.024 166.576 166.647C166.852 166.483 166.635 166.005 166.318 165.954C166.001 165.902 165.702 166.093 165.414 166.235C164.842 166.517 164.188 166.633 163.667 167.001C163.147 167.369 162.818 168.15 163.221 168.644Z" fill="#FF6635"/>
<ellipse cx="223.092" cy="100.363" rx="1.89467" ry="1.89466" fill="#FF6635"/>
<path fill-rule="evenodd" clip-rule="evenodd" d="M238.568 24.7011C237.527 24.9843 236.657 25.8312 236.347 26.8647C236.12 27.6213 236.181 28.4314 236.266 29.2168C236.405 30.5021 236.643 31.8651 237.522 32.8137C238.475 31.9292 238.482 30.433 238.267 29.1506C238.236 28.9627 238.201 28.7733 238.167 28.5833L238.166 28.5826L238.166 28.5819L238.166 28.5812C237.964 27.475 237.756 26.3428 238.137 25.301C239.145 26.8871 239.462 28.8959 238.992 30.7154L241.988 29.481C242.55 29.2493 243.217 29.5826 243.564 30.0823C243.911 30.5819 244.014 31.2059 244.108 31.8068C244.332 33.2384 244.379 35.0541 243.103 35.7417C242.731 35.9422 242.211 36.3874 242.559 36.6266C243.601 37.3424 243.878 38.9351 243.187 39.9938C242.497 41.0526 240.985 41.4527 239.834 40.9299C238.683 40.4071 237.992 39.0582 238.178 37.8078L235.547 39.4921C235.305 39.6465 235.035 39.8076 234.752 39.7616C234.398 39.7041 234.181 39.3543 234.011 39.0394C233.338 37.7973 232.66 36.2817 233.337 35.0424C232.207 34.7541 231.178 33.9911 230.691 32.9307C230.204 31.8704 230.325 30.5239 231.09 29.6431C231.855 28.7622 233.262 28.47 234.26 29.0746C234.727 29.3577 235.079 28.5714 235.098 28.0256C235.149 26.5375 235.625 24.8826 236.941 24.185C237.545 23.8645 238.557 24.0173 238.568 24.7011ZM240.418 34.612C241.455 35.1982 242.967 34.5743 243.288 33.4269C243.61 32.2796 242.644 30.9607 241.453 30.9219C240.018 30.8751 239.016 32.3162 238.474 33.6453C238.256 34.1779 237.465 34.0368 236.954 33.7733C236.442 33.5097 235.716 33.2587 235.381 33.7262C234.939 34.3422 234.265 34.7875 233.525 34.9527C233.954 35.2945 234.111 35.8322 234.269 36.3728L234.269 36.3732C234.338 36.6117 234.408 36.8507 234.502 37.0738C234.807 37.8026 235.839 38.3996 236.33 37.7805C237.191 36.6946 238.194 35.7212 239.306 34.8927C239.631 34.6501 240.064 34.4124 240.418 34.612ZM232.708 30.0902C232.175 29.9496 231.626 30.4251 231.524 30.967C231.423 31.5089 231.66 32.0608 231.979 32.5106C232.124 32.7153 232.29 32.9101 232.5 33.0476C233.04 33.4014 233.761 33.3103 234.362 33.0767C234.604 32.9829 234.838 32.8686 235.071 32.7544L235.071 32.7543C235.419 32.5841 235.766 32.4142 236.138 32.3126C235.268 31.2342 234.048 30.4434 232.708 30.0902ZM242.321 39.1303C242.548 38.6769 242.402 38.1079 242.093 37.7058C241.784 37.3038 241.338 37.0329 240.904 36.7714L240.193 36.3435C239.92 36.1791 239.594 36.0092 239.298 36.1269C238.802 36.3239 238.894 37.0479 239.085 37.5463C239.359 38.2623 239.684 39.0118 240.316 39.4453C240.949 39.8787 241.977 39.8156 242.321 39.1303ZM186.083 34.4788C186.495 34.8747 186.553 35.6053 186.162 36.0219C185.771 36.4384 184.981 36.3921 184.687 35.9023C184.529 35.6391 184.526 35.3245 184.522 35.0117C184.521 34.9132 184.52 34.8149 184.514 34.7185C184.489 34.3156 184.153 33.3857 184.065 33.1716C182.973 32.2779 182.559 30.8067 182.338 29.4134C182.173 28.3725 182.089 27.269 182.498 26.2977C182.907 25.3263 183.949 24.5486 184.98 24.7681C186.175 25.0226 186.747 26.3589 187.132 27.5188C187.446 28.4659 187.652 29.7399 186.799 30.2584C186.654 28.9943 186.479 27.6576 185.687 26.6616C185.184 26.0295 184.149 25.6163 183.611 26.2191C183.38 26.478 183.325 26.8457 183.299 27.1917C183.098 29.8703 184.147 32.6168 186.083 34.4788ZM184.088 40.7153L183.931 40.7395C182.529 40.9563 181.073 41.1814 179.973 39.9186C178.832 38.6087 178.434 35.7529 179.052 35.0083C179.922 33.9609 181.309 33.3427 182.674 33.4326C182.733 33.5739 182.695 33.8908 182.657 34.2107C182.619 34.5366 182.58 34.8657 182.642 35.0152C181.696 34.5231 180.403 34.861 179.818 35.7529C179.746 35.8635 179.681 35.9976 179.721 36.1238C180.032 37.1139 180.371 38.1452 181.112 38.8717C181.853 39.5983 183.126 39.8945 183.931 39.2386C184.188 39.0288 184.369 38.7492 184.552 38.4687L184.552 38.4686C184.698 38.2428 184.845 38.0164 185.033 37.8255C185.452 37.3976 186.302 37.2581 186.565 37.7969C185.929 38.4352 185.325 39.1057 184.756 39.8047C184.621 39.9715 184.486 40.2185 184.626 40.3811C184.971 40.7796 185.037 41.3205 185.102 41.855C185.12 42.0035 185.138 42.1516 185.162 42.296C185.273 42.9599 185.692 43.7139 186.364 43.6975C186.932 43.6837 187.315 43.1311 187.6 42.6398L188.671 40.7925C188.982 40.8303 189.184 41.1708 189.177 41.4841C189.171 41.7975 189.011 42.0849 188.851 42.3542C188.357 43.1838 187.812 43.9832 187.221 44.7465C187.04 44.9792 186.834 45.2227 186.547 45.2896C186.25 45.3591 185.945 45.2189 185.689 45.0524C184.305 44.1515 183.621 42.2997 184.088 40.7153ZM190.192 29.2409C190.668 29.0017 191.311 29.0082 191.671 29.4011C192.463 31.3181 191.931 33.705 190.398 35.1033C190.362 35.1364 190.325 35.1695 190.288 35.2027C190.035 35.428 189.774 35.6606 189.687 35.9829C189.587 36.3526 189.906 36.8383 190.269 36.7174C190.522 36.6332 190.603 36.3487 190.68 36.0788L190.68 36.0786L190.68 36.0784L190.68 36.0782L190.68 36.078L190.68 36.0778L190.68 36.0776C190.697 36.0197 190.713 35.9624 190.731 35.908C190.952 35.2291 191.692 34.7614 192.401 34.853C193.31 35.2451 195.153 36.305 194.805 39.1142C194.493 41.6271 193.251 41.5093 192.807 41.4672C192.755 41.4623 192.714 41.4584 192.687 41.46C191.484 41.5297 190.764 40.2203 190.178 39.1554L190.146 39.0967C189.87 38.5952 189.247 38.0537 188.815 38.43C188.647 38.577 188.596 38.8148 188.565 39.0362C188.517 39.3751 188.502 39.7552 188.718 40.0215C188.933 40.2877 189.456 40.285 189.547 39.9552C189.658 40.9552 190.204 41.9214 191.065 42.4421C191.926 42.9628 193.095 42.9805 193.918 42.4011C194.512 41.9824 194.88 41.3148 195.153 40.6409C195.403 40.0226 195.591 39.3702 195.605 38.7035C195.639 37.0815 194.621 35.5802 193.31 34.6242C192.968 34.3748 192.56 34.0656 192.603 33.6446L192.796 31.7665C192.888 30.8616 192.977 29.9174 192.651 29.0679C192.326 28.2183 191.451 27.5049 190.559 27.6837C189.845 27.8268 189.399 28.433 188.949 29.0456C188.539 29.6029 188.125 30.1655 187.502 30.3899C186.813 30.6381 186.778 31.5861 186.869 32.3128C186.9 32.5572 186.936 32.8151 187.089 33.0078C187.243 33.2005 187.557 33.2878 187.738 33.1208C187.692 32.0706 188.382 31.1478 189.037 30.3257C189.369 29.9092 189.716 29.4802 190.192 29.2409ZM127.933 69.8384C129.278 68.6506 131.14 68.2591 132.925 68.0685C139.193 67.3992 145.659 68.7187 151.163 71.7906L151.21 71.8168C151.303 71.8689 151.397 71.9216 151.49 71.9744C152.495 72.5422 153.525 73.124 154.669 73.1949C155.028 73.2172 155.387 73.1876 155.746 73.1581C156.06 73.1322 156.374 73.1064 156.689 73.1151C157.441 73.136 158.143 73.2477 158.838 73.3582C160.141 73.5654 161.416 73.7683 162.941 73.3599C165.125 72.7749 165.446 73.3483 165.678 74.5219C165.91 75.6955 165.064 76.882 163.977 77.3811C162.89 77.8801 161.632 77.8286 160.45 77.6391C160.109 77.5843 159.768 77.5187 159.427 77.4531C158.59 77.2921 157.753 77.131 156.903 77.1295C155.221 77.1263 153.551 77.7371 151.907 78.3384C149.583 79.1883 147.312 80.0191 145.132 79.071C144.36 78.7355 143.473 78.9734 142.667 79.2147L134.15 81.7665C132.042 82.398 129.863 83.0365 127.677 82.7856C125.942 82.5864 124.34 81.8432 122.739 81.1002C121.125 80.3512 119.512 79.6024 117.761 79.4109C116.286 79.2496 114.793 79.4942 113.307 79.7376C111.414 80.0474 109.535 80.3551 107.723 79.8205C107.822 79.3535 108.332 79.1166 108.779 78.9494C111.51 77.9287 114.285 76.8978 117.192 76.6787C117.67 76.6426 118.159 76.6263 118.649 76.61C120.425 76.5507 122.222 76.4908 123.643 75.4871C124.682 74.7532 125.326 73.6407 125.972 72.5234C126.536 71.5495 127.102 70.572 127.933 69.8384ZM146.561 78.0633C148.328 78.5673 150.028 77.8023 151.762 77.0225C152.967 76.4805 154.188 75.9314 155.457 75.7964C156.695 75.6648 157.926 75.9354 159.156 76.2057C160.439 76.4877 161.721 76.7694 163.008 76.5938C163.918 76.4697 164.992 75.6214 164.513 74.8378C164.233 74.3803 163.603 74.3245 163.066 74.3193L154.324 74.2338C153.376 74.2246 152.349 74.1878 151.613 73.5904C150.082 72.3465 148.218 71.5847 146.337 70.9877C143.766 70.1713 141.106 69.6303 138.418 69.3997C135.484 69.1481 132.518 69.2672 129.613 69.7533L126.195 74.1927C124.796 76.0092 122.92 78.0279 120.658 77.653C117.706 77.1638 114.603 77.6343 111.929 78.9766C114.618 78.0881 117.596 78.0976 120.279 79.0033C121.066 79.2688 121.825 79.6079 122.585 79.9469C123.469 80.3418 124.353 80.7366 125.28 81.0147C129.561 82.2998 134.159 80.9627 138.344 79.3902L138.494 79.3337C141.097 78.3547 143.895 77.3025 146.561 78.0633ZM122.174 114.561C123.684 112.745 125.153 110.978 127.404 110.893C130.905 110.76 134.343 109.508 137.165 107.431C137.849 106.927 138.531 106.329 138.778 105.516C139.026 104.703 138.642 103.648 137.812 103.462C136.206 103.102 135.592 101.427 134.989 99.7797C134.796 99.2523 134.604 98.7278 134.381 98.2502C133.429 96.2143 131.445 94.6947 129.232 94.306C128.393 94.1588 127.54 94.1655 126.686 94.1722H126.686H126.686C125.929 94.1782 125.172 94.1842 124.424 94.083C122.832 93.8677 121.131 92.9339 120.84 91.3541C120.104 87.3597 115.562 84.526 111.651 85.6206C110.537 85.9323 109.59 85.2146 108.614 84.4741C107.843 83.8895 107.054 83.2907 106.148 83.173C105.361 83.0706 104.58 83.3509 103.836 83.6267C102.158 84.2486 100.434 84.8973 99.1111 86.1024C97.7878 87.3075 96.9439 89.2182 97.5058 90.9174C97.8409 91.9305 97.0054 92.9531 96.1223 93.552C95.94 93.6757 95.7503 93.7946 95.56 93.914C94.8287 94.3726 94.0879 94.8372 93.7181 95.5988C93.1609 96.7466 93.6723 98.1313 94.3879 99.1877C95.1754 100.35 96.2234 101.393 97.262 102.427C99.2574 104.414 101.218 106.366 101.233 109.064L90.0116 108.167C88.7335 108.065 87.2751 108.026 86.3739 108.938C85.835 109.483 85.605 109.658 85.375 109.833C84.9151 110.184 84.4551 110.534 81.5236 113.847C80.103 115.453 78.5639 118.025 80.0311 118.498C81.5115 118.975 84.9773 117.062 87.3792 115.736C88.6368 115.041 89.6027 114.508 89.839 114.564C89.4679 114.788 85.6716 116.762 83.2506 118.02L83.2487 118.021C82.1442 118.595 81.3264 119.02 81.2516 119.062C79.8506 119.846 77.9627 122.795 79.2992 124.091C80.3275 125.088 82.1771 124.241 82.5025 122.96C82.482 123.122 82.4271 123.32 82.3685 123.531C82.1298 124.392 81.8302 125.471 83.5451 125.249C85.4642 125 86.2569 124.642 87.8245 123.935C88.0017 123.856 88.1889 123.771 88.3887 123.682C87.5162 124.471 86.4306 124.916 85.3031 125.378L85.3031 125.378L85.303 125.378C84.6233 125.657 83.9283 125.942 83.2557 126.312C82.0841 126.957 82.0841 129.069 86.3758 128.838C87.1056 128.799 87.8371 128.752 88.5697 128.705C91.5276 128.514 94.5026 128.322 97.4531 128.642C98.9235 128.801 100.455 129.063 101.63 129.96C103.033 131.032 103.671 132.8 104.271 134.462L104.279 134.485C109.466 148.859 117.134 162.186 124.783 175.415C127.308 179.781 130.373 184.557 135.296 185.657C122.251 169.781 112.022 151.599 105.226 132.208C104.439 129.963 102.312 128.398 100.045 127.678C97.7779 126.958 95.3546 126.954 92.976 126.957C91.4683 126.959 90.243 127.177 89.0571 127.389C87.4977 127.667 86.0063 127.933 84.0299 127.678C82.4376 127.473 83.7852 126.916 85.6989 126.125C87.6272 125.328 90.1303 124.293 90.7796 123.141C90.0318 121.952 88.1909 122.463 87.0146 123.23C85.8383 123.997 82.1962 125.183 83.0748 123.682C84.1629 121.823 86.0998 120.819 88.0516 119.806C88.6684 119.486 89.2867 119.166 89.8802 118.817C90.5285 118.436 90.0419 117.305 89.2984 117.193C88.5549 117.081 87.8706 117.576 87.2819 118.044C86.633 118.559 85.8922 119.306 85.1273 120.078L85.1273 120.078C83.3312 121.889 81.4022 123.834 80.2178 123.23C77.6422 121.918 85.8273 117.585 90.3607 115.186L90.3696 115.181L90.3788 115.176L90.3842 115.173C90.6708 115.022 90.9426 114.878 91.196 114.743C90.167 112.971 87.4065 113.844 85.8542 115.181L85.7549 115.266L85.609 115.392C84.1081 116.692 82.345 118.219 80.5263 117.538C79.4452 117.134 81.0103 115.849 82.5755 114.565L82.5756 114.565C83.3581 113.922 84.1406 113.28 84.5924 112.748C85.3514 111.854 86.1346 110.939 87.1636 110.377C88.4226 109.688 89.9142 109.598 91.3491 109.585C94.9214 109.553 98.497 109.905 101.994 110.634C107.084 114.006 111.484 118.413 114.847 123.508C122.7 135.403 130.391 147.403 138.081 159.404C138.17 159.542 138.331 159.808 138.543 160.159C139.673 162.026 142.249 166.284 143.058 166.385C143.95 166.497 144.874 165.754 145.529 165.176L176.966 145.607C182.076 142.426 187.73 139.118 193.699 139.891C203.369 141.145 213.179 142.284 222.843 140.986C232.507 139.688 242.153 135.686 248.415 128.211C237.1 137.224 222.247 141.666 207.842 140.344C205.881 140.164 203.904 139.885 201.925 139.604L201.925 139.604C195.957 138.759 189.97 137.911 184.34 139.798C182.892 140.283 181.423 140.942 179.952 141.603C175.79 143.472 171.603 145.352 167.787 143.327C164.321 141.489 159.985 142.44 156.537 144.312C153.088 146.183 148.745 148.738 151.765 151.978C154.784 155.217 148.479 153.74 144.958 152.009C141.437 150.277 140.613 144.236 144.209 141.79C142.599 143.619 142.653 147.285 145.005 147.922C147.357 148.558 149.83 147.397 151.765 145.915C153.955 144.238 153.649 142.079 153.376 140.148C153.083 138.084 152.828 136.282 155.7 135.611C157.668 135.15 159.696 135.293 161.727 135.435C163.58 135.566 165.435 135.696 167.249 135.369C170.242 134.83 172.785 133.131 175.345 131.422C176.944 130.354 178.55 129.281 180.275 128.485C184.762 126.415 189.849 126.297 194.807 126.182L194.817 126.182C195.105 126.175 195.393 126.169 195.68 126.162C204.746 125.94 213.99 125.177 222.342 121.643C230.694 118.108 238.12 111.379 240.468 102.619C242.401 95.4079 240.573 87.2967 235.733 81.6123C230.894 75.9279 223.179 72.8287 215.752 73.5861C211.873 73.9817 208.125 75.3459 204.399 76.7018C199.289 78.5618 194.221 80.4061 188.918 79.7135C181.206 78.7065 175.289 72.6202 170.032 66.889C176.3 67.8497 182.833 67.0083 188.653 64.4909C191.617 63.2085 194.391 61.5078 197.159 59.8103C200.941 57.4909 204.713 55.1775 208.951 53.9449C219.467 50.8859 231.181 55.317 238.862 63.1244C246.544 70.9317 250.687 81.6055 252.873 92.3375C254.298 99.3307 254.974 106.439 255.65 113.55L255.65 113.551L255.651 113.552C256.012 117.353 256.374 121.155 256.85 124.94C257.089 126.848 257.357 128.767 257.626 130.693C259.196 141.938 260.796 153.402 257.025 163.975C253.803 173.005 247.019 180.239 240.361 187.138C231.315 196.511 221.993 205.927 210.565 212.177C199.993 217.959 188.055 220.778 176.138 222.562C166.79 223.961 157.321 224.763 147.882 224.278C128.134 223.262 109.146 216.674 90.5631 209.914C83.8849 207.485 76.9077 204.985 69.8509 205.823C66.2261 206.253 62.7033 207.552 59.2066 208.841C54.0167 210.755 48.8839 212.648 43.5592 211.648C38.6651 210.729 34.684 207.531 30.7061 204.336C26.6689 201.093 22.6352 197.852 17.6537 197C22.1071 196.263 26.4976 198.311 30.8134 200.324C35.7976 202.649 40.6822 204.928 45.4486 202.817C62.7788 195.141 82.7057 197.648 101.473 200.3L124.548 203.561C127.782 204.019 130.984 203.289 134.2 202.556L134.201 202.556C136.093 202.125 137.991 201.692 139.904 201.5C144.86 201.001 149.739 202.118 154.633 203.237L154.633 203.237C157.221 203.83 159.813 204.423 162.423 204.778C181.975 207.444 202.548 194.97 209.226 176.402C210.099 173.974 210.802 171.402 211.505 168.826C213.535 161.393 215.575 153.924 221.755 149.773C222.401 149.339 223.095 148.937 223.791 148.533L223.792 148.533C225.982 147.264 228.193 145.983 228.987 143.669C223.137 145.587 218.025 149.674 214.866 154.958C212.643 158.674 211.409 162.84 210.173 167.011L210.173 167.012C209.608 168.919 209.043 170.827 208.383 172.693C202.286 189.931 185.66 204.329 167.408 203.249C163.735 203.032 160.122 202.223 156.514 201.416C152.003 200.405 147.5 199.397 142.902 199.551C140.337 199.637 137.808 200.085 135.276 200.532L135.276 200.532L135.276 200.532C133.21 200.898 131.143 201.263 129.056 201.433C122.185 201.99 115.341 200.411 108.629 198.844C123.745 195.117 139.062 192.208 154.492 190.135C165.85 188.609 178.934 186.512 184.75 176.637C188.898 169.594 195.649 164.722 202.395 159.853C209.286 154.879 216.172 149.909 220.27 142.634C200.812 162.168 172.789 178.956 132.385 187.21C132.105 187.265 131.83 187.32 131.558 187.377C131.834 187.322 132.11 187.266 132.385 187.21C135.178 186.666 138.373 186.245 141.849 185.787L141.85 185.787C155.222 184.026 172.75 181.717 187.527 169.729C184.99 175.508 180.45 180.385 174.868 183.33C169.911 185.945 164.311 187.021 158.805 188.065L124.57 194.556C113.975 196.564 103.227 198.582 92.4768 197.727C89.4914 197.489 86.5109 197.031 83.5336 196.573H83.5335H83.5333C77.7466 195.683 71.9721 194.795 66.1985 195.534C62.4257 196.017 58.7993 197.181 55.1686 198.346L55.1683 198.346C52.9201 199.068 50.6701 199.79 48.3826 200.352C42.4009 201.82 35.6171 202.039 30.5574 198.527C20.5588 191.586 4.64777 196.267 0 207.516C5.31061 201.087 14.9087 198.617 22.6628 201.684C25.8287 202.937 28.6298 204.978 31.4182 207.01C34.9846 209.608 38.5301 212.192 42.7914 213.09C48.5837 214.311 54.4418 212.18 60.239 210.071C66.7409 207.707 73.1663 205.37 79.3368 207.82C100.249 216.123 121.967 222.956 144.378 224.967C166.788 226.978 190.048 223.932 209.93 213.399C220.131 207.995 229.253 200.747 237.728 192.909C245.72 185.517 253.38 177.277 257.262 167.106C261.539 155.9 260.823 143.494 260.046 131.525C258.631 109.741 256.882 86.8991 245.088 68.5302C241.127 62.3611 235.986 56.778 229.496 53.3681C223.006 49.9581 215.05 48.9308 208.257 51.6859C204.501 53.2091 201.13 55.4734 197.754 57.7406C195.904 58.9831 194.053 60.2266 192.136 61.3494C184.855 65.6147 176.241 67.4009 168.141 65.0336C165.12 64.1505 162.261 62.8183 159.402 61.4858C156.687 60.2202 153.97 58.9544 151.113 58.0728C145.714 56.4065 139.959 56.1649 134.325 56.6096C112.541 58.3292 91.7636 70.8199 80.4477 89.5141C69.1317 108.208 67.7624 132.672 77.3632 152.302C86.9641 171.932 107.387 185.953 129.193 187.377C126.486 185.699 123.347 185.069 120.194 184.437C118.415 184.08 116.632 183.722 114.92 183.174C110.174 181.657 105.403 177.314 106.599 172.477C107.624 168.328 103.951 164.517 100.241 162.396C99.5185 161.983 98.7712 161.587 98.0209 161.189C94.9177 159.545 91.7631 157.873 90.1064 154.857C86.5376 148.358 92.1001 140.771 97.2794 135.466C91.5175 138.774 87.2336 144.558 85.7476 151.033C89.2125 157.043 94.7455 161.833 101.189 164.403C104.497 168.719 106.103 174.304 105.594 179.719C86.7377 168.201 73.8897 147.374 72.0573 125.354C71.6198 120.097 71.8119 114.621 74.0166 109.829C78.9584 99.0875 84.0351 88.1701 91.9778 79.4113C104.012 66.1409 122.414 58.9239 140.261 60.4755C158.108 62.0271 174.989 72.3117 184.552 87.4598C181.064 85.5347 177.46 83.5714 173.501 83.1255C169.542 82.6797 165.094 84.1255 163.161 87.6095C161.698 90.2473 157.711 88.1626 155.604 86.0044C153.497 83.8462 149.213 82.1212 148.139 84.94L149.215 91.1084C145.12 89.089 140.144 95.204 142.954 98.8026C143.908 100.025 145.354 100.74 146.749 101.416C154.565 105.199 163.664 109.03 171.6 105.509C175.673 103.702 180.144 102.8 184.599 102.885C185.672 102.906 186.792 102.997 187.712 103.551C188.432 103.984 188.952 104.65 189.474 105.32C189.825 105.77 190.177 106.221 190.592 106.604C191.625 107.558 193.59 107.872 194.226 106.618C195.904 109.611 197.614 112.701 198.04 116.105C198.465 119.51 197.298 123.348 194.347 125.099C191.397 126.85 186.747 125.375 186.155 121.995C185.59 118.773 182.282 117.958 178.815 117.104C175.879 116.381 172.83 115.63 171.235 113.366C169.56 110.988 166.12 110.51 163.322 111.302C161.271 111.882 159.437 112.989 157.604 114.097C156.935 114.501 156.266 114.905 155.586 115.283C154.508 115.884 153.386 116.429 152.266 116.974L152.265 116.974C149.432 118.352 146.601 119.729 144.457 121.997C141.466 125.163 140.636 131.005 144.209 133.496C145.545 134.428 155.586 142.634 150.064 145.415C141.832 149.562 144.089 142.154 144.956 140.837C140.984 141.311 139.172 146.843 141.324 150.214C143.477 153.585 148.298 155.69 152.21 154.857C154.148 154.444 153.578 153.407 152.907 152.186C152.223 150.942 151.434 149.506 153.084 148.343C152.768 149.545 153.964 149.959 155.291 150.418C156.329 150.778 157.446 151.164 157.979 151.978C158.941 153.445 157.448 155.255 156.089 156.364L146.11 164.505C145.974 164.578 145.801 164.684 145.604 164.806C144.875 165.256 143.813 165.912 143.058 165.786C142.421 165.681 135.754 154.008 134.4 148.011C134.243 147.319 134.121 146.609 134 145.9L134 145.899L134 145.899L134 145.898C133.561 143.34 133.125 140.8 131.087 139.217C130.072 138.429 128.871 137.836 127.68 137.248C125.58 136.212 123.512 135.191 122.549 133.138C121.872 131.694 120.873 130.443 119.873 129.191C119.011 128.113 118.149 127.033 117.49 125.827C116.066 123.221 116.029 119.325 118.635 117.903C120.027 117.144 121.111 115.84 122.174 114.561ZM115.385 87.0734C117.437 87.1495 118.609 89.3822 119.391 91.282C120.172 93.1818 121.462 95.3883 123.514 95.3146C125.529 95.2423 127.587 95.1751 129.517 95.7567C131.447 96.3383 133.261 97.6962 133.842 99.6265C133.954 99.997 134.028 100.395 134.101 100.793C134.292 101.821 134.482 102.846 135.32 103.389C135.499 103.504 135.707 103.6 135.914 103.696C136.427 103.933 136.937 104.168 136.988 104.692C137.013 104.951 136.899 105.203 136.772 105.429C135.459 107.759 132.61 108.7 129.978 109.171C129.598 109.239 129.215 109.302 128.831 109.366C126.547 109.743 124.218 110.128 122.39 111.506C121.475 112.195 120.753 113.088 120.029 113.983L120.029 113.983C119.41 114.748 118.791 115.513 118.05 116.153C117.764 116.4 117.461 116.628 117.158 116.856C116.59 117.282 116.024 117.708 115.577 118.255C114.891 119.095 114.559 120.375 115.194 121.253C112.416 117.481 109.016 114.168 105.173 111.489C104.13 110.761 102.944 109.9 102.852 108.632C102.628 105.51 100.125 103.177 97.7982 101.008L97.7976 101.008L97.7971 101.007C97.6004 100.824 97.4049 100.642 97.2122 100.46C96.1035 99.4168 94.9543 97.9363 95.5193 96.5225C95.84 95.72 96.6074 95.2472 97.3736 94.7752C98.1515 94.2959 98.9283 93.8173 99.2349 92.9953C99.4769 92.3465 99.3566 91.6569 99.2352 90.9607C99.1414 90.4231 99.047 89.8816 99.118 89.3517C99.2392 88.4473 99.6082 88.2118 100.526 87.6256C101.151 87.2267 102.03 86.6654 103.259 85.6203C105.122 84.0349 107.784 85.2322 110.089 86.2688C111.536 86.9195 112.842 87.507 113.722 87.3031C114.265 87.177 114.824 87.0527 115.385 87.0734ZM129.818 139.797C131.127 141.289 132.495 142.904 132.756 144.872C132.888 145.875 132.711 146.917 132.254 147.819L126.333 138.593C126.269 138.494 126.202 138.372 126.25 138.263C126.328 138.087 126.59 138.141 126.764 138.224L129.197 139.39C129.422 139.497 129.653 139.61 129.818 139.797ZM192.145 94.1829C192.092 94.6781 192.269 95.1931 192.614 95.5516C193.065 95.778 193.543 95.5599 194.027 95.3383C194.253 95.2351 194.481 95.1312 194.708 95.0711C195.124 94.9609 195.563 95.0026 195.991 95.0451L201.252 95.5672C201.576 95.066 200.913 94.5102 200.35 94.3111C197.726 93.3824 194.797 93.3367 192.145 94.1829ZM220.812 103.662C218.671 106.946 215.322 109.423 211.555 110.508L211.521 111.353C215.718 110.416 219.529 107.851 221.977 104.316C222.259 103.909 222.49 103.274 222.085 102.988C221.643 102.677 221.107 103.21 220.812 103.662ZM212.35 95.297C211.837 95.1541 211.143 95.0218 210.894 95.493C211.788 96.3049 212.791 97.1633 213.998 97.1996C214.861 97.2255 215.672 96.8195 216.439 96.4237C218.245 95.4927 220.067 94.5513 221.63 93.254C221.571 92.7064 220.856 92.4518 220.334 92.6271C219.9 92.7726 219.567 93.1025 219.238 93.4279C219.171 93.4943 219.104 93.5605 219.036 93.625C217.297 95.2827 214.665 95.9409 212.35 95.297ZM207.559 106.452C207.698 106.682 207.871 106.926 208.133 106.986C208.32 107.029 208.513 106.968 208.695 106.908L211.54 105.968C211.54 105.633 211.181 105.4 210.847 105.367C210.66 105.348 210.473 105.37 210.286 105.392C210.139 105.41 209.991 105.427 209.844 105.425C208.705 105.407 207.913 104.252 207.628 103.149C207.529 102.765 207.465 102.37 207.401 101.975C207.281 101.236 207.161 100.5 206.814 99.8443C206.158 99.8126 205.919 100.701 205.961 101.356C206.076 103.15 206.629 104.914 207.559 106.452ZM199.477 100.168C200.145 99.4463 201.144 98.4864 201.908 99.1056C200.608 101.654 197.775 103.34 194.914 103.267C196.497 106.258 197.518 109.544 197.908 112.905C197.977 113.496 198.355 113.999 198.737 114.454C200.664 116.75 203.14 118.69 206.038 119.458C211.399 120.88 217.162 117.952 220.663 113.649C224.164 109.347 225.862 103.894 227.418 98.5704C227.867 97.0335 228.535 95.2627 230.077 94.832C231.744 94.3665 233.132 93.0071 233.633 91.3502C234.134 89.6933 233.73 87.7926 232.6 86.4817C231.322 84.9995 228.566 84.5734 227.592 86.2709C227.214 86.9305 226.289 87.0837 225.566 86.8479C224.98 86.6571 224.486 86.2777 223.994 85.9006C223.878 85.8118 223.762 85.7231 223.645 85.6371C219.855 82.8408 214.798 82.6816 210.088 82.6329C208.597 82.6175 207.088 82.604 205.639 82.956C203.952 83.3659 202.447 84.2431 200.937 85.1228C199.767 85.8046 198.595 86.4878 197.333 86.9561C193.639 88.3273 189.258 87.6553 186.144 85.2401C189.525 90.592 192.348 96.2964 194.553 102.231C196.387 102.287 198.23 101.515 199.477 100.168ZM149.142 85.2181C149.338 85.8483 149.63 86.4505 149.92 87.0507C150.374 87.989 150.825 88.9225 150.908 89.9511C151.043 91.6378 149.274 93.5677 147.845 92.6621C146.361 91.7222 144.17 92.6043 143.479 94.2187C142.787 95.8331 143.442 97.8188 144.761 98.9788C145.756 99.8543 147.04 100.313 148.291 100.753C149.802 101.284 151.505 102.001 153.274 102.745C157.737 104.623 162.617 106.677 165.889 106.371C167.527 106.218 170.58 104.429 171.619 103.785C173.601 102.555 175.896 101.276 178.139 101.915C180.964 102.721 184.076 102.473 186.738 101.232C188.036 100.627 189.24 102.215 189.772 103.545C190.303 104.876 191.362 106.514 192.72 106.058C193.469 105.806 193.872 104.945 193.848 104.155C193.825 103.365 193.47 102.628 193.122 101.918L186.805 89.0254C185.118 89.4974 183.622 88.5197 182.083 87.5135C181.036 86.829 179.968 86.1313 178.807 85.8675C178.224 85.7352 177.624 85.7164 177.025 85.6977C176.401 85.6781 175.777 85.6586 175.173 85.5111C174.527 85.3533 173.924 85.0539 173.322 84.7553C172.589 84.3913 171.859 84.0284 171.054 83.9245C169.326 83.7016 167.677 84.7263 166.419 85.9308C166.005 86.3266 165.613 86.7476 165.221 87.1683L165.221 87.1684L165.221 87.1685C164.421 88.0282 163.621 88.8867 162.642 89.5262C161.184 90.4788 159.115 90.8208 157.764 89.7214C157.241 89.2962 156.892 88.7152 156.542 88.1325L156.542 88.1324L156.542 88.1323C156.369 87.844 156.196 87.5554 156.001 87.285C154.501 85.2019 151.543 84.3106 149.142 85.2181ZM143.543 129.097C144.13 130.847 145.335 132.38 146.699 133.624C146.997 133.896 147.337 134.158 147.679 134.422C148.801 135.29 149.951 136.179 149.756 137.489C152.287 134.814 156.071 133.38 159.738 133.705C160.338 133.759 160.934 133.856 161.529 133.954C162.167 134.058 162.804 134.162 163.448 134.212C168.021 134.568 172.311 132.195 176.282 129.899L184.836 124.953C185.497 123.58 184.986 121.865 183.965 120.734C182.944 119.602 181.508 118.943 180.086 118.396C178.545 117.802 176.939 117.297 175.288 117.263C175.131 117.26 174.97 117.259 174.806 117.257C173.281 117.242 171.511 117.225 170.985 115.868C170.213 113.873 168.326 112.353 166.213 112.021C164.099 111.69 161.839 112.56 160.493 114.223C159.249 115.759 157.301 116.451 155.418 117.121C155.191 117.201 154.965 117.282 154.741 117.363C152.221 118.281 149.797 119.466 147.525 120.893C145.62 122.089 143.65 123.757 143.543 126.004C143.531 126.252 143.505 126.518 143.478 126.792C143.401 127.576 143.317 128.425 143.543 129.097ZM229.662 115.647C233.22 112.873 236.335 109.417 238.17 105.295C240.004 101.173 240.466 96.3401 238.871 92.1195C237.923 89.6099 236.303 87.4074 234.517 85.4054C231.417 81.9297 227.36 78.801 222.703 78.7361C221.15 78.7144 219.616 79.0381 218.097 79.3603L209.287 81.2284C214.278 81.1352 219.285 81.9485 223.991 83.617L224.029 83.6306C225.088 84.0063 226.246 84.4169 227.295 84.0228C229.874 83.0551 233.061 84.1291 234.528 86.4597C235.995 88.7903 235.584 92.1286 233.596 94.0345C233.195 94.4197 232.742 94.747 232.29 95.0741C231.79 95.4358 231.291 95.7973 230.86 96.2369C229.573 97.5501 229.047 99.3852 228.536 101.169C228.477 101.374 228.418 101.579 228.359 101.782C225.312 112.167 217.366 121.671 206.78 123.923C215.023 123.66 223.158 120.717 229.662 115.647ZM220.056 78.2117C222.753 77.9139 225.553 77.6428 228.12 78.5228C230.468 79.3279 232.389 81.0189 234.243 82.6698L236.925 85.059C232.925 78.6861 225.534 74.587 218.01 74.5682C214.392 74.5591 210.82 75.4277 207.411 76.6397C206.326 77.0253 205.255 77.4458 204.184 77.8663C203.818 78.0097 203.453 78.1531 203.087 78.2952C199.105 79.8405 194.98 81.2378 190.71 81.342C186.441 81.4463 181.955 80.0872 179.134 76.8812C179.009 76.7397 178.886 76.5937 178.763 76.447C178.162 75.7329 177.549 75.0046 176.677 74.7154C179.176 77.9354 181.726 81.2059 185.062 83.5468C188.398 85.8878 192.7 87.2013 196.611 86.054C198.381 85.5346 199.955 84.5574 201.531 83.579C202.249 83.1334 202.967 82.6875 203.704 82.2846C208.666 79.5726 214.435 78.8325 220.056 78.2117ZM159.65 152.941C159.809 153.613 160.556 154.285 161.122 153.891C164.08 151.833 167.048 149.769 170.252 148.121C170.597 147.944 170.945 147.77 171.294 147.597L171.295 147.597C173.037 146.73 174.794 145.856 176.133 144.462C174.184 145.411 171.882 145.266 169.759 144.828C169.082 144.688 168.408 144.52 167.735 144.352C166.3 143.994 164.865 143.636 163.392 143.549C161.539 143.44 159.661 143.773 157.957 144.511C156.932 144.955 155.926 145.591 155.4 146.576C154.875 147.562 155 148.958 155.917 149.595C156.344 149.891 156.883 149.999 157.413 150.106C158.112 150.247 158.796 150.384 159.189 150.945C159.451 151.319 159.499 151.778 159.547 152.24C159.572 152.477 159.597 152.714 159.65 152.941ZM204.199 121.227C203.368 120.727 202.695 120.007 202.033 119.298L198.787 115.814L199.165 121.576C199.202 122.134 199.236 122.708 199.059 123.237C198.882 123.766 198.438 124.247 197.881 124.292C197.588 124.315 197.581 124.804 197.833 124.955C198.086 125.106 198.407 125.022 198.688 124.935L206.345 122.548C206.82 122.4 207.31 122.243 207.681 121.913C206.488 122.096 205.234 121.849 204.199 121.227ZM220.409 87.9542C217.876 87.786 215.355 88.3045 212.87 88.8202C212.22 88.9551 211.564 89.0916 210.955 89.3538C209.532 89.9655 208.487 91.1962 207.495 92.3856C207.348 92.5622 207.192 92.7663 207.216 92.995C207.256 93.3839 207.805 93.5219 208.147 93.3327C208.431 93.1757 208.61 92.8929 208.786 92.6148C208.822 92.5579 208.858 92.5013 208.895 92.4459C210.198 90.4769 212.764 89.8726 215.083 89.427C217.047 89.0495 219.07 88.6716 221.033 89.0557C221.375 89.1228 221.569 88.5915 221.357 88.3135C221.146 88.0354 220.757 87.9774 220.409 87.9542Z" fill="#00160A"/>
<path fill-rule="evenodd" clip-rule="evenodd" d="M228.079 67.4578C227.541 67.0839 227.003 66.71 226.465 66.3362C227.276 65.7522 228.475 65.9237 229.238 66.5685C230.001 67.2132 230.372 68.2301 230.44 69.2271C230.491 69.9872 230.323 70.8584 229.678 71.2631C229.056 71.6528 228.25 71.4617 227.545 71.2585C226.963 71.0908 226.381 70.9231 225.799 70.7554C225.188 70.5793 224.65 71.19 224.356 71.7536C224.062 72.3172 223.723 72.9918 223.093 73.0759C222.255 73.1879 221.758 72.2088 221.161 71.6096C219.423 69.8645 215.951 71.1163 214.346 69.2479C213.662 68.4522 213.563 67.2479 213.978 66.2843C214.393 65.3207 215.261 64.5964 216.236 64.2094C216.632 64.0522 217.057 63.9398 217.391 63.6744C217.724 63.4089 217.937 62.9251 217.736 62.5494C217.278 61.6926 216.811 60.8072 216.716 59.8404C216.621 58.8735 216.99 57.7938 217.848 57.3364C218.677 56.8935 219.747 57.1554 220.478 57.7467C221.21 58.338 221.667 59.1985 222.053 60.0559C222.164 60.3013 222.283 60.5635 222.512 60.7051C222.741 60.8466 223.112 60.7858 223.186 60.5269C223.561 59.2168 225.331 58.6724 226.542 59.2972C227.753 59.922 228.364 61.3762 228.325 62.7382C228.311 63.2233 228.221 63.7226 227.949 64.1244C227.757 64.4068 227.487 64.6251 227.217 64.8332C226.405 65.458 225.554 66.0315 224.67 66.5493C224.631 68.2322 225.994 69.8334 227.661 70.0643C228.227 70.1427 228.904 70.0203 229.173 69.5158C229.574 68.7618 228.781 67.9453 228.079 67.4578ZM224.995 64.6676C225.936 64.5462 226.773 63.8327 227.042 62.9235C227.311 62.0142 226.997 60.9598 226.274 60.3461C226.132 60.2249 225.965 60.1165 225.778 60.1046C225.56 60.0907 225.357 60.2101 225.17 60.3253C223.821 61.1579 222.306 62.2782 222.337 63.8632C222.37 65.537 221.81 67.2166 220.778 68.5348C220.405 69.0109 220.688 69.7264 221.108 70.1608C221.528 70.5951 222.083 70.919 222.368 71.4519C222.567 71.8238 223.165 71.7773 223.447 71.4638C223.729 71.1503 223.778 70.6962 223.798 70.2749C223.872 68.6995 223.74 67.1144 223.405 65.5731C223.332 65.2327 223.632 64.9103 223.961 64.7974C224.291 64.6844 224.65 64.7122 224.995 64.6676M220.948 65.7225C220.382 66.0349 219.769 65.4555 219.217 65.1196C217.684 64.1866 215.48 65.396 215.059 67.1401C214.894 67.8214 215.381 68.5249 216.005 68.8439C216.629 69.1628 217.357 69.1885 218.057 69.2076C218.525 69.2204 219.035 69.2198 219.403 68.9302C219.643 68.7407 219.784 68.4548 219.913 68.1774C220.288 67.3722 220.633 66.5531 220.948 65.7225ZM219.041 58.3409C218.491 58.3079 218.023 58.8109 217.913 59.3503C217.803 59.8898 217.966 60.4453 218.16 60.9605C218.805 62.6715 219.813 64.2445 221.099 65.5444C221.407 63.2092 221.601 60.5073 219.942 58.8351C219.695 58.5863 219.391 58.3618 219.041 58.3409V58.3409Z" fill="#E7EAEE"/>
</svg>
