<svg width="406" height="406" viewBox="0 0 406 406" fill="none" xmlns="http://www.w3.org/2000/svg">
<rect width="406" height="406" fill="white"/>
<path fill-rule="evenodd" clip-rule="evenodd" d="M296.055 300.345L296.229 300.385L296.574 300.469C302.172 301.868 307.627 303.839 312.825 306.342C315.735 307.744 318.764 309.354 321.985 309.107C322.907 309.036 323.817 308.812 324.742 308.802C327.877 308.768 330.523 311.136 333.588 311.798C336.245 312.373 338.987 311.626 341.702 311.472C344.417 311.318 347.556 312.034 348.812 314.445C348.987 314.781 349.12 315.164 349.038 315.534C348.927 316.031 348.477 316.343 348.007 316.578L347.912 316.624L347.712 316.717C344.098 318.336 340.24 319.992 336.325 319.517L336.051 319.48L335.644 319.427C331.974 319.012 328.271 320.205 324.566 320.101C316.919 319.887 309.123 319.058 301.773 317.507L300.988 317.338L300.592 317.252C287.991 314.561 281.654 316.511 275.765 316.661L275.577 316.665L275.21 316.67C272.941 316.681 265.41 316.635 262.718 317.341C261.36 317.697 260.457 315.64 261.174 314.432C261.862 313.273 263.242 312.783 264.503 312.28L264.66 312.217L264.786 312.165C266.009 311.651 267.282 310.832 267.519 309.56L267.539 309.427L267.559 309.3C267.852 307.686 269.78 306.969 271.433 306.601L271.567 306.572L272.516 306.371C275.053 305.844 277.64 305.406 280.19 305.803C281.635 306.027 287.149 302.572 288.803 301.15C290.721 299.499 293.549 299.767 296.055 300.345ZM317.141 193.642L316.935 193.709C315.208 194.206 313.557 194.964 312.067 195.969C309.52 197.686 307.374 200.105 304.473 201.115C302.468 201.814 300.208 201.754 298.243 200.951C298.923 202.429 300.814 202.945 302.433 202.777C307.163 202.286 310.386 197.834 314.637 195.704C315.575 195.234 316.562 194.882 317.577 194.635C318 195.595 318.422 196.565 318.842 197.541L318.839 197.553C318.515 197.791 318.221 198.068 317.968 198.384C316.993 199.6 316.751 201.443 317.619 202.737C318.49 204.036 320.085 204.432 321.71 204.383L321.711 204.378L322.298 205.818C323.274 208.226 324.244 210.676 325.205 213.169L325.128 213.211C324.894 213.328 324.662 213.448 324.431 213.568C318.115 216.87 312.392 221.48 305.554 223.49C304.285 223.863 302.949 224.144 301.645 223.924C300.34 223.704 299.067 222.891 298.625 221.644C298.136 221.678 298.088 222.401 298.297 222.845C299.461 225.329 303 225.316 305.633 224.549C312.672 222.499 318.657 217.942 325.141 214.504L325.616 214.255L326.364 216.247C358.925 305.278 271.09 298.688 245.848 292.151C208.423 282.459 97.2599 318.646 72.8948 292.151C62.7594 281.129 57.7028 266.622 56.82 250.394C64.2247 247.328 70.667 241.963 78.2161 239.123C82.9565 237.341 88.0837 236.594 93.1356 236.951C95.6696 237.131 98.261 237.614 100.39 238.999C102.519 240.385 104.101 242.833 103.864 245.362C103.7 247.124 102.71 248.692 101.668 250.122C100.944 251.115 100.175 252.086 99.2407 252.883C97.4591 254.402 95.1446 255.215 92.8132 255.434C90.4153 255.66 87.8682 255.243 85.9478 253.789C84.0274 252.335 82.9029 249.709 83.6498 247.419C83.953 246.489 84.5325 245.669 85.2147 244.968C86.6077 243.538 88.5895 242.544 90.5693 242.803C92.549 243.062 94.3555 244.85 94.1991 246.841C94.0426 248.831 91.4723 250.324 89.8439 249.169C90.0978 248.295 88.8106 247.474 88.1249 248.073C87.5269 248.595 87.7275 249.648 88.3357 250.158C88.944 250.669 89.7931 250.765 90.5871 250.771C91.8808 250.781 93.2407 250.58 94.2709 249.798C96.618 248.015 95.8547 243.864 93.3154 242.368C90.7761 240.872 87.3946 241.624 85.0481 243.408C83.8689 244.304 82.8525 245.47 82.3615 246.868C81.3396 249.776 82.8979 253.163 85.4541 254.886C88.0102 256.609 91.311 256.898 94.3544 256.407C96.0817 256.128 97.8004 255.602 99.2362 254.602C100.655 253.613 101.73 252.213 102.722 250.797C104.031 248.927 105.281 246.852 105.304 244.57C105.329 242.013 103.742 239.628 101.632 238.183C99.522 236.739 96.9512 236.118 94.4091 235.841C86.7592 235.007 78.9889 237.07 72.1694 240.635C66.9518 243.363 62.1388 246.983 56.7677 249.293C56.2217 236.505 58.2316 222.683 62.3597 208.679L62.69 208.612C67.7895 207.55 72.9886 206.966 78.1967 206.87C81.6524 206.807 85.1535 206.965 88.4681 207.944C89.8596 208.355 91.2263 208.912 92.6718 209.037C95.4448 209.277 98.2678 207.909 100.96 208.615C102.318 208.972 103.22 206.914 102.504 205.706C101.787 204.499 100.319 204.018 99.0178 203.491C97.7161 202.964 96.3133 202.094 96.1384 200.701C95.9188 198.952 93.8344 198.214 92.1111 197.846L91.4789 197.712C88.8402 197.156 86.1436 196.664 83.4874 197.077C82.0431 197.301 80.5261 197.783 79.1667 197.246C77.1379 196.445 76.5286 193.846 74.875 192.424C73.1701 190.957 70.7475 191.005 68.4704 191.439C77.1624 170.4 90.2307 149.735 106.194 132.327L106.203 132.337C106.294 132.349 106.386 132.36 106.477 132.37C112.503 133.054 118.677 132.393 124.42 130.449C128.527 129.059 132.98 130.98 136.711 133.189C140.441 135.397 144.233 138.022 148.566 138.149C151.67 138.24 154.637 137.023 157.634 136.213C170.384 132.765 183.787 136.644 196.819 138.794C200.831 139.456 205.348 139.836 208.581 137.369C207.604 135.232 205.265 133.997 202.945 133.624C200.625 133.25 198.259 133.583 195.914 133.735C187.732 134.264 179.415 132.529 172.128 128.773C168.128 126.711 163.386 127.021 158.91 126.548C154.435 126.075 149.46 124.246 147.899 120.025C146.521 116.301 142.627 113.884 138.675 113.502C134.722 113.119 130.77 114.502 127.372 116.557C123.974 118.612 121.029 121.319 118.004 123.891C116.892 124.836 115.73 125.786 114.343 126.239C113.56 126.494 112.741 126.58 111.916 126.624L111.638 126.632C167.957 70.1251 255.738 54.8649 317.141 193.642ZM319.275 198.553C319.376 198.79 319.479 199.03 319.581 199.272L321.268 203.307C320.317 203.255 319.411 202.964 318.836 202.235C318.012 201.188 318.276 199.547 319.22 198.606L319.275 198.553ZM96.0184 161.606L95.7047 161.772C95.2239 162.031 94.7608 162.299 94.0884 162.705L92.4976 163.673C90.4107 164.929 89.2745 165.493 87.8374 165.915C87.2029 166.102 86.7422 166.164 86.3209 166.093C85.8535 166.015 85.4615 165.732 85.3361 165.378L85.2261 165.068L84.8976 165.091C84.3036 165.133 84.1779 165.776 84.3919 166.232C84.9565 167.437 86.5074 167.678 88.1154 167.21C89.7477 166.734 91.0181 166.116 93.3337 164.752L94.8173 163.87C96.7358 162.735 97.7434 162.212 99.0172 161.733C101.033 160.975 103.214 160.658 105.362 160.81C106.619 160.899 107.574 161.144 108.331 161.637C109.198 162.201 109.738 163.142 109.656 164.017C109.603 164.584 109.331 165.124 108.776 165.886C108.4 166.401 108.11 166.74 107.783 167.019C107.112 167.591 106.206 167.94 105.211 168.034C104.164 168.132 103.197 167.92 102.509 167.4C101.77 166.84 101.401 165.869 101.654 165.092C101.755 164.782 101.954 164.478 102.237 164.187C102.81 163.6 103.551 163.281 104.214 163.368C104.898 163.457 105.473 164.074 105.426 164.671L105.418 164.738C105.337 165.183 104.822 165.52 104.424 165.458L104.381 165.449L104.38 165.439C104.24 164.846 103.431 164.467 102.915 164.918C102.445 165.328 102.546 166.095 103.014 166.488C103.342 166.763 103.739 166.854 104.275 166.858C105.033 166.863 105.659 166.717 106.152 166.343C107.412 165.386 107.087 163.197 105.691 162.375C104.481 161.662 102.832 161.916 101.592 162.858C100.967 163.333 100.501 163.915 100.27 164.573C99.7712 165.993 100.463 167.69 101.79 168.584C102.926 169.35 104.422 169.572 105.995 169.318C106.903 169.171 107.673 168.899 108.31 168.456C108.897 168.047 109.349 167.531 109.942 166.684C110.749 165.532 111.14 164.684 111.15 163.716C111.162 162.498 110.449 161.308 109.355 160.559C108.454 159.942 107.352 159.609 105.997 159.461C102.744 159.107 99.2878 159.896 96.0184 161.606Z" fill="#B2C3D6"/>
<path fill-rule="evenodd" clip-rule="evenodd" d="M63.6858 241.133C64.1278 242.379 65.4006 243.192 66.7049 243.412C68.0092 243.632 69.3453 243.351 70.6143 242.978C75.1456 241.647 79.1874 239.173 83.2366 236.695C85.2977 235.433 87.3607 234.171 89.4911 233.057C96.3106 229.491 104.081 227.428 111.731 228.263C114.273 228.54 116.844 229.16 118.954 230.605C121.064 232.049 122.651 234.435 122.625 236.992C122.602 239.274 121.353 241.349 120.044 243.218C119.052 244.635 117.977 246.035 116.558 247.023C115.122 248.023 113.403 248.549 111.676 248.828C108.633 249.32 105.332 249.031 102.776 247.308C100.22 245.584 98.6612 242.198 99.6832 239.289C100.174 237.892 101.191 236.726 102.37 235.829C104.716 234.046 108.098 233.294 110.637 234.79C113.176 236.286 113.94 240.437 111.593 242.219C110.562 243.002 109.202 243.202 107.909 243.193C107.115 243.187 106.266 243.09 105.657 242.58C105.049 242.069 104.849 241.017 105.447 240.494C106.132 239.895 107.419 240.716 107.166 241.591C108.794 242.746 111.364 241.253 111.521 239.262C111.677 237.272 109.871 235.484 107.891 235.225C105.911 234.966 103.929 235.959 102.536 237.39C101.854 238.09 101.275 238.911 100.971 239.841C100.225 242.13 101.349 244.757 103.269 246.211C105.19 247.664 107.737 248.082 110.135 247.856C112.466 247.636 114.781 246.824 116.562 245.304C117.497 244.507 118.266 243.536 118.989 242.544C120.032 241.114 121.022 239.546 121.186 237.784C121.422 235.254 119.841 232.806 117.712 231.421C115.583 230.035 112.991 229.552 110.457 229.373C105.405 229.016 100.278 229.762 95.5377 231.545C91.5678 233.038 87.9038 235.23 84.2452 237.419C79.8897 240.024 75.5417 242.625 70.6937 244.037C68.0605 244.804 64.5209 244.817 63.357 242.334C63.1488 241.889 63.1962 241.167 63.6858 241.133Z" fill="#B2C3D6"/>
<path fill-rule="evenodd" clip-rule="evenodd" d="M188.54 269.31C183.378 275.906 169.287 270.811 163.234 266.959C157.181 263.106 159.505 259.374 159.505 257.548C159.505 255.723 159.089 253.491 158.077 251.913C157.065 250.335 141.057 243.569 141.057 236.137C141.057 229.205 145.855 222.863 152.567 219.99C163.234 215.424 168.452 218.327 178.309 222.337C188.165 226.346 187.355 236.137 187.355 236.137C187.355 236.137 195.439 260.495 188.54 269.31Z" fill="#E7EAEE"/>
<path d="M182.181 272.962C160.375 271.537 139.952 257.516 130.352 237.886C120.751 218.256 122.12 193.793 133.436 175.098C144.752 156.404 165.529 143.913 187.314 142.194C192.947 141.749 198.702 141.991 204.102 143.657C209.967 145.467 215.239 148.896 221.13 150.618C229.229 152.985 237.843 151.199 245.124 146.934C250.538 143.762 255.431 139.628 261.245 137.27C268.039 134.515 275.995 135.542 282.485 138.952C288.974 142.362 294.115 147.945 298.076 154.114C309.87 172.483 311.619 195.325 313.034 217.109C313.811 229.078 314.527 241.484 310.25 252.69C306.368 262.861 298.709 271.102 290.716 278.493C282.241 286.331 273.12 293.579 262.919 298.983C243.036 309.516 219.776 312.563 197.366 310.552C174.956 308.54 153.237 301.707 132.325 293.404C120.653 288.769 108.068 301.264 95.7797 298.674C88.187 297.074 82.8666 290.123 75.651 287.269C67.897 284.202 58.2989 286.671 52.9883 293.1C57.6361 281.851 73.5471 277.17 83.5457 284.111C88.6054 287.623 95.3891 287.404 101.371 285.936C107.353 284.468 113.078 281.901 119.187 281.118C127.931 279.998 136.677 282.612 145.465 283.311C156.215 284.166 166.963 282.148 177.558 280.14C188.97 277.976 200.382 275.813 211.794 273.649C217.3 272.606 222.9 271.53 227.856 268.915C233.439 265.969 237.978 261.092 240.516 255.313C221.509 271.242 192.943 272.08 182.181 272.962Z" fill="white"/>
<path fill-rule="evenodd" clip-rule="evenodd" d="M190.163 269.851C185.001 276.447 170.91 271.352 164.857 267.5C158.804 263.647 161.128 259.915 161.128 258.09C161.128 256.264 160.712 254.032 159.7 252.454C158.688 250.876 142.68 244.11 142.68 236.678C142.68 229.746 147.478 223.404 154.19 220.531C164.857 215.965 170.075 218.868 179.932 222.878C189.788 226.887 188.978 236.678 188.978 236.678C188.978 236.678 197.062 261.036 190.163 269.851Z" fill="#E7EAEE"/>
<path fill-rule="evenodd" clip-rule="evenodd" d="M211.556 239.068C211.714 239.739 212.461 240.411 213.027 240.017C215.985 237.959 218.953 235.895 222.158 234.247C224.221 233.185 226.431 232.262 228.038 230.588C226.089 231.537 223.787 231.393 221.665 230.954C219.542 230.515 217.461 229.803 215.298 229.676C213.444 229.567 211.566 229.899 209.862 230.637C208.838 231.081 207.831 231.717 207.306 232.703C206.78 233.688 206.905 235.084 207.823 235.721C208.812 236.407 210.403 236.085 211.094 237.071C211.49 237.636 211.397 238.396 211.556 239.068Z" fill="#E7EAEE"/>
<path fill-rule="evenodd" clip-rule="evenodd" d="M239.762 175.216C244.186 183.141 249.818 188.8 246.232 192.398C243.122 195.519 244.207 190.09 240.679 188.926C238.337 188.153 233.339 189.747 228.965 189.564C222.939 189.311 222.105 193.28 217.618 193.069C210.636 192.741 201.135 188.159 198.215 187.031C194.71 185.677 195.76 180.985 198.215 178.76C199.12 177.94 202.081 180.338 202.408 179.24C203.623 175.162 200.987 171.523 203 170.978C203.925 170.728 207.303 171.833 208.582 173.143C210.084 174.682 211.595 176.972 214.698 176.041C220.442 174.318 219.704 170.562 224.194 170.562C228.683 170.562 234.551 173.85 237.378 174.818C240.206 175.785 235.337 167.291 239.762 175.216Z" fill="#E7EAEE"/>
<path fill-rule="evenodd" clip-rule="evenodd" d="M194.14 215.183C194.727 216.933 195.932 218.465 197.297 219.709C198.573 220.873 200.608 221.865 200.354 223.574C202.884 220.9 206.668 219.465 210.336 219.791C211.579 219.901 212.801 220.201 214.046 220.298C218.618 220.653 222.909 218.28 226.879 215.985C229.731 214.336 232.582 212.687 235.434 211.039C236.095 209.665 235.583 207.951 234.562 206.819C233.541 205.688 232.106 205.029 230.684 204.481C229.142 203.887 227.537 203.383 225.885 203.349C224.274 203.316 222.165 203.456 221.583 201.953C220.81 199.958 218.924 198.438 216.811 198.107C214.697 197.775 212.436 198.645 211.09 200.308C209.697 202.029 207.42 202.691 205.339 203.449C202.818 204.366 200.395 205.552 198.123 206.978C196.218 208.174 194.248 209.843 194.14 212.089C194.094 213.045 193.836 214.276 194.14 215.183Z" fill="#E7EAEE"/>
<path fill-rule="evenodd" clip-rule="evenodd" d="M200.091 164.731C203.085 165.586 205.891 162.794 208.987 162.464C211.517 162.196 214.017 163.606 216.537 163.262C217.447 163.138 218.522 162.289 218.043 161.506C217.763 161.048 217.132 160.992 216.596 160.987C213.682 160.959 210.768 160.93 207.854 160.902C206.906 160.893 205.879 160.856 205.143 160.258C203.612 159.015 201.747 158.253 199.867 157.656C197.296 156.839 194.636 156.298 191.948 156.068C189.014 155.816 186.048 155.935 183.143 156.421C182.004 157.901 180.864 159.381 179.724 160.861C178.325 162.677 176.45 164.696 174.188 164.321C171.236 163.832 168.133 164.302 165.459 165.645C168.148 164.756 171.125 164.766 173.809 165.671C175.512 166.246 177.088 167.166 178.81 167.683C183.091 168.968 187.689 167.631 191.873 166.058C194.519 165.064 197.373 163.956 200.091 164.731Z" fill="#E7EAEE"/>
<path d="M250.897 198.491C250.966 199.081 251.343 199.584 251.726 200.04C253.653 202.335 256.129 204.275 259.026 205.043C264.388 206.465 270.151 203.537 273.651 199.235C277.152 194.932 278.851 189.479 280.407 184.156C280.856 182.619 281.523 180.848 283.065 180.417C284.732 179.952 286.121 178.592 286.621 176.935C287.122 175.278 286.719 173.378 285.589 172.067C284.311 170.585 281.555 170.159 280.581 171.856C280.202 172.516 279.277 172.669 278.554 172.433C277.831 172.197 277.246 171.674 276.634 171.222C272.844 168.426 267.786 168.267 263.076 168.218C261.586 168.203 260.077 168.189 258.628 168.541C255.633 169.269 253.211 171.469 250.322 172.541C246.628 173.912 242.246 173.24 239.133 170.825C242.514 176.177 245.337 181.882 247.541 187.816C247.702 189.008 250.507 195.13 250.897 198.491Z" fill="white"/>
<path fill-rule="evenodd" clip-rule="evenodd" d="M175.086 177.409C174.305 175.509 173.133 173.277 171.08 173.2C170.52 173.18 169.971 173.336 169.418 173.43C166.47 173.931 162.838 170.225 161.732 169.925C160.627 169.625 159.288 171.708 157.888 172.334C156.488 172.96 155.018 173.959 154.814 175.479C154.651 176.695 155.36 177.973 154.931 179.122C154.322 180.754 151.861 181.032 151.215 182.65C150.65 184.063 151.799 185.544 152.908 186.587C155.381 188.915 158.304 191.372 158.548 194.759C158.64 196.027 159.826 196.888 160.869 197.616C164.712 200.295 168.112 203.608 170.89 207.38C170.254 206.502 170.587 205.222 171.272 204.382C171.958 203.542 172.925 202.989 173.746 202.28C175.353 200.891 176.389 198.911 178.086 197.633C180.221 196.023 183.041 195.769 185.674 195.298C188.306 194.827 191.155 193.886 192.467 191.556C192.595 191.33 192.709 191.078 192.683 190.819C192.612 190.083 191.636 189.917 191.016 189.516C189.852 188.763 189.938 187.08 189.538 185.754C188.957 183.823 187.143 182.465 185.213 181.884C183.282 181.302 181.225 181.369 179.21 181.442C177.157 181.515 175.867 179.309 175.086 177.409Z" fill="#E7EAEE"/>
<path d="M373.918 302.548C373.693 302.743 373.472 302.249 373.643 302.005C373.885 301.934 373.964 302.32 373.909 302.566L373.918 302.548Z" fill="black"/>
<path fill-rule="evenodd" clip-rule="evenodd" d="M287.142 254.516C285.784 255.027 284.128 254.607 283.178 253.51C282.695 252.951 281.764 253.29 281.213 253.782C280.662 254.274 280.119 254.927 279.38 254.922C278.623 254.918 278.045 254.161 277.963 253.409C277.881 252.657 278.164 251.918 278.443 251.215C277.408 251.411 276.32 251.606 275.319 251.279C274.318 250.953 273.464 249.914 273.728 248.895C273.825 248.522 274.056 248.196 274.322 247.917C275.203 246.993 276.529 246.514 277.797 246.661C278.414 246.733 278.63 245.862 278.578 245.243C278.477 244.063 278.287 242.85 278.618 241.713C278.949 240.576 280.002 239.537 281.176 239.692C282.666 239.89 283.292 241.689 283.457 243.183C283.514 243.694 283.938 244.393 284.336 244.068C285.616 243.026 287.66 243.084 288.877 244.198C289.347 244.628 289.706 245.231 289.674 245.868C289.635 246.609 289.083 247.229 288.467 247.642C287.85 248.056 287.147 248.33 286.547 248.768C287.852 249.642 289.223 250.956 288.955 252.503C288.793 253.435 288.026 254.184 287.142 254.516ZM281.381 249.483C281.414 249.633 281.446 249.784 281.479 249.935C280.388 250.482 280.051 251.851 279.834 253.052C280.159 253.297 280.612 252.978 280.845 252.644C281.355 251.912 281.595 251.031 281.969 250.222C282.343 249.412 282.924 248.615 283.781 248.367C284.137 248.263 284.515 248.263 284.878 248.192C285.653 248.039 286.324 247.573 286.97 247.118C287.33 246.864 287.711 246.584 287.858 246.169C288.188 245.24 287.034 244.332 286.065 244.509C285.095 244.687 284.392 245.514 283.823 246.319C283.253 247.123 282.678 248.004 281.773 248.395C281.511 248.508 281.21 248.575 280.941 248.479C280.672 248.383 280.465 248.079 280.556 247.808C280.647 247.537 281.094 247.457 281.221 247.713C281.448 247.609 281.556 247.304 281.445 247.08C280.294 247.285 279.144 247.49 277.993 247.695C277.361 247.807 276.706 247.93 276.185 248.305C275.664 248.68 275.323 249.387 275.572 249.979C277.242 251.083 279.437 249.006 281.381 249.483ZM284.281 249.595C283.492 249.746 283.194 250.805 283.499 251.548C283.804 252.291 284.484 252.796 285.087 253.326C285.671 253.839 286.686 253.602 287.103 252.946C287.52 252.291 287.386 251.384 286.915 250.766C286.444 250.148 285.697 249.791 284.937 249.63C284.721 249.584 284.497 249.553 284.281 249.595ZM282.175 244.489C282.13 243.336 282.014 242.035 281.119 241.307C280.846 241.085 280.496 241.479 280.385 241.813C280.102 242.666 279.972 243.569 280.001 244.466C280.016 244.915 280.077 245.382 280.327 245.755C280.577 246.128 281.063 246.375 281.487 246.225C282.117 246.001 282.201 245.158 282.175 244.489V244.489Z" fill="#FF6635"/>
<path fill-rule="evenodd" clip-rule="evenodd" d="M281.067 153.043C280.529 152.669 279.991 152.295 279.453 151.921C280.264 151.337 281.462 151.509 282.226 152.153C282.989 152.798 283.36 153.815 283.427 154.812C283.479 155.572 283.311 156.443 282.665 156.848C282.044 157.238 281.238 157.047 280.532 156.843C279.951 156.676 279.369 156.508 278.787 156.34C278.176 156.164 277.638 156.775 277.344 157.339C277.05 157.902 276.711 158.577 276.081 158.661C275.242 158.773 274.746 157.794 274.149 157.195C272.41 155.449 268.939 156.701 267.333 154.833C266.65 154.037 266.551 152.833 266.966 151.869C267.381 150.906 268.249 150.181 269.224 149.794C269.62 149.637 270.045 149.525 270.378 149.259C270.712 148.994 270.925 148.51 270.724 148.134C270.266 147.278 269.799 146.392 269.704 145.425C269.609 144.459 269.978 143.379 270.835 142.921C271.665 142.478 272.735 142.74 273.466 143.332C274.198 143.923 274.655 144.783 275.041 145.641C275.152 145.886 275.271 146.148 275.5 146.29C275.729 146.432 276.1 146.371 276.174 146.112C276.548 144.802 278.319 144.257 279.53 144.882C280.741 145.507 281.351 146.961 281.312 148.323C281.298 148.808 281.209 149.308 280.936 149.709C280.745 149.992 280.475 150.21 280.204 150.418C279.393 151.043 278.542 151.616 277.658 152.134C277.619 153.817 278.982 155.418 280.649 155.649C281.215 155.728 281.892 155.605 282.161 155.101C282.562 154.347 281.769 153.53 281.067 153.043ZM277.983 150.253C278.923 150.131 279.761 149.418 280.03 148.508C280.299 147.599 279.985 146.545 279.262 145.931C279.12 145.81 278.953 145.701 278.766 145.69C278.547 145.676 278.345 145.795 278.158 145.91C276.809 146.743 275.294 147.863 275.325 149.448C275.358 151.122 274.798 152.802 273.766 154.12C273.393 154.596 273.675 155.311 274.096 155.746C274.516 156.18 275.07 156.504 275.356 157.037C275.555 157.409 276.153 157.362 276.435 157.049C276.717 156.735 276.765 156.281 276.785 155.86C276.86 154.284 276.728 152.699 276.393 151.158C276.319 150.818 276.62 150.495 276.949 150.382C277.279 150.269 277.638 150.297 277.983 150.253M273.936 151.307C273.37 151.62 272.756 151.04 272.205 150.705C270.672 149.772 268.468 150.981 268.046 152.725C267.882 153.406 268.369 154.11 268.993 154.429C269.617 154.748 270.344 154.773 271.045 154.793C271.513 154.805 272.023 154.805 272.39 154.515C272.631 154.326 272.771 154.04 272.9 153.762C273.275 152.957 273.621 152.138 273.936 151.307ZM272.028 143.926C271.479 143.893 271.01 144.396 270.901 144.935C270.791 145.475 270.954 146.03 271.148 146.545C271.792 148.257 272.801 149.829 274.086 151.129C274.395 148.794 274.589 146.092 272.93 144.42C272.683 144.171 272.378 143.947 272.028 143.926V143.926Z" fill="#E7EAEE"/>
<path fill-rule="evenodd" clip-rule="evenodd" d="M158.055 206.244C156.566 207.059 155.607 208.758 155.679 210.453C155.71 211.188 155.838 212.102 155.215 212.491C154.7 210.715 154.942 208.733 155.867 207.132C156.096 206.737 156.378 206.352 156.781 206.137C157.183 205.922 157.73 205.923 158.055 206.244V206.244Z" fill="#00160A"/>
<ellipse cx="276.08" cy="185.948" rx="1.89467" ry="1.89466" fill="#FF6635"/>
<path fill-rule="evenodd" clip-rule="evenodd" d="M216.206 245.976C216.358 245.328 216.654 244.627 217.274 244.385C218.639 243.85 219.708 245.927 221.169 246.039C221.968 246.1 222.682 245.553 223.472 245.419C224.78 245.196 226.142 246.357 226.13 247.684C226.119 248.809 225.29 249.791 225.216 250.914C224.478 250.786 223.648 251.088 223.268 251.734C222.887 252.38 223.085 253.338 223.748 253.688C224.411 254.038 225.386 253.55 225.41 252.8C225.422 252.396 225.195 252.024 225.135 251.623C225.076 251.223 225.328 250.706 225.728 250.767C226.502 251.265 226.921 252.261 226.734 253.162C226.547 254.064 225.768 254.812 224.86 254.962C224.581 255.008 224.284 255.005 224.037 255.143C223.616 255.379 223.502 255.917 223.339 256.371C223.023 257.252 222.337 258.021 221.45 258.32C220.562 258.619 219.488 258.383 218.891 257.661C218.295 256.939 218.304 255.753 218.988 255.114C218.566 254.9 218.134 255.342 217.737 255.6C216.739 256.249 215.249 255.596 214.832 254.482C214.414 253.367 214.923 252.052 215.832 251.283C216.122 251.038 216.491 250.724 216.376 250.361C215.928 248.95 215.869 247.418 216.206 245.976ZM220.583 251.311C220.224 252.797 219.865 254.287 219.678 255.804C219.623 256.256 219.615 256.793 219.973 257.075C220.359 257.379 220.94 257.191 221.321 256.881C222.345 256.049 222.568 254.394 221.801 253.32C221.261 252.564 221.752 251.484 222.438 250.857C223.123 250.23 224.007 249.792 224.505 249.008C225.002 248.223 224.794 246.889 223.877 246.743C223.162 246.63 222.38 246.827 221.882 247.352C221.432 247.827 221.262 248.494 221.109 249.13C220.933 249.857 220.758 250.584 220.583 251.311ZM219.333 250.229C220.006 249.854 220.118 248.918 219.946 248.168C219.749 247.308 219.282 246.512 218.627 245.922C218.471 245.781 218.293 245.647 218.084 245.627C217.52 245.573 217.254 246.298 217.178 246.859C217.067 247.686 216.962 248.563 217.301 249.325C217.641 250.087 218.604 250.635 219.333 250.229ZM216.209 254.229C216.677 254.804 217.644 254.47 218.132 253.912C218.619 253.354 218.926 252.609 219.564 252.232C219.84 252.068 219.623 251.59 219.306 251.539C218.989 251.487 218.69 251.678 218.402 251.82C217.83 252.102 217.176 252.218 216.655 252.586C216.135 252.954 215.806 253.735 216.209 254.229Z" fill="#FF6635"/>
<path d="M373.082 293.797C373.329 293.706 373.418 294.135 373.285 294.362C373.034 294.451 372.944 294.021 373.07 293.787L373.082 293.797Z" fill="black"/>
<path fill-rule="evenodd" clip-rule="evenodd" d="M286.621 176.935C287.263 175.281 286.719 173.378 285.589 172.067C284.311 170.585 281.555 170.159 280.581 171.856C280.202 172.516 279.277 172.669 278.554 172.433C277.831 172.197 277.246 171.674 276.634 171.222C272.844 168.426 267.786 168.267 263.076 168.218C261.586 168.203 260.077 168.189 258.628 168.541C255.633 169.269 253.211 171.469 250.322 172.541C246.628 173.912 242.246 173.24 239.133 170.825C240.392 172.818 243.851 179.258 243.851 179.258C243.851 179.258 243.228 176.25 244.159 175.974C245.87 175.466 248.045 176.491 249.726 176.255C255.989 175.376 259.303 172.323 261.737 172.067C278.554 170.297 284.956 181.233 286.621 176.935Z" fill="#E7EAEE"/>
<path fill-rule="evenodd" clip-rule="evenodd" d="M290.717 274.163C282.242 282 273.121 289.249 262.92 294.653C243.037 305.185 219.777 308.232 197.367 306.221C174.957 304.21 153.238 297.377 132.326 289.073C126.412 286.725 179.588 303.533 222.21 299.447C263.708 295.47 294.66 270.516 290.717 274.163Z" fill="#E7EAEE"/>
<ellipse cx="255.509" cy="196.505" rx="2.7067" ry="2.70666" fill="#FF6635"/>
<path d="M170.479 211.413C171.903 214.019 174.277 216.035 175.538 218.724C177.047 221.941 195.41 251.267 196.047 251.372C197.371 251.592 199.638 249.411 199.401 250.146C199.309 250.002 220.291 261.638 216.03 264.479C211.136 267.741 201.027 271.243 188.285 271.243C183.362 270.143 180.297 265.367 177.773 261C170.123 247.772 162.455 234.445 157.268 220.071C156.666 218.403 156.029 216.623 154.619 215.546C153.444 214.648 151.913 214.387 150.442 214.228C146.761 213.829 143.042 214.226 139.365 214.424C135.073 214.655 135.073 212.543 136.245 211.898C138.033 210.913 139.979 210.532 141.378 209.268C139.411 210.146 138.67 210.557 136.534 210.834C134.398 211.112 135.388 209.368 135.492 208.546C135.166 209.827 133.317 210.673 132.288 209.677C130.952 208.381 132.84 205.432 134.241 204.648C134.479 204.515 142.288 200.476 142.828 200.149C142.141 199.988 135.276 204.81 133.02 204.083C131.553 203.61 133.092 201.038 134.513 199.433C138.91 194.463 137.746 196.16 139.363 194.523C140.264 193.611 141.723 193.651 143.001 193.753C144.93 193.907 152.681 193.326 159.085 197.537C165.1 201.492 169.826 210.217 170.479 211.413Z" fill="white"/>
<path fill-rule="evenodd" clip-rule="evenodd" d="M291.556 110.286C290.515 110.569 289.646 111.416 289.336 112.45C289.109 113.206 289.169 114.016 289.254 114.802C289.394 116.087 289.632 117.45 290.51 118.399C291.463 117.514 291.471 116.018 291.256 114.736C291.224 114.548 291.19 114.358 291.155 114.168L291.155 114.168L291.155 114.167L291.154 114.166C290.952 113.06 290.745 111.928 291.125 110.886C292.133 112.472 292.45 114.481 291.98 116.3L294.976 115.066C295.538 114.834 296.206 115.168 296.552 115.667C296.899 116.167 297.002 116.791 297.096 117.392C297.32 118.823 297.367 120.639 296.091 121.327C295.72 121.527 295.199 121.972 295.548 122.212C296.589 122.927 296.866 124.52 296.176 125.579C295.485 126.638 293.973 127.038 292.822 126.515C291.671 125.992 290.981 124.643 291.166 123.393L288.535 125.077C288.294 125.232 288.023 125.393 287.74 125.347C287.387 125.289 287.169 124.939 286.999 124.624C286.326 123.382 285.648 121.867 286.326 120.627C285.195 120.339 284.166 119.576 283.679 118.516C283.193 117.455 283.313 116.109 284.078 115.228C284.843 114.347 286.251 114.055 287.248 114.66C287.715 114.943 288.067 114.156 288.086 113.611C288.137 112.122 288.614 110.468 289.929 109.77C290.533 109.449 291.545 109.602 291.556 110.286ZM293.406 120.197C294.443 120.783 295.955 120.159 296.277 119.012C296.598 117.865 295.632 116.546 294.441 116.507C293.006 116.46 292.005 117.901 291.462 119.23C291.245 119.763 290.453 119.622 289.942 119.358C289.431 119.095 288.704 118.844 288.369 119.311C287.927 119.927 287.253 120.372 286.513 120.538C286.942 120.879 287.099 121.417 287.257 121.958L287.257 121.958C287.327 122.197 287.397 122.436 287.49 122.659C287.795 123.388 288.827 123.985 289.318 123.365C290.18 122.28 291.183 121.306 292.294 120.478C292.619 120.235 293.053 119.997 293.406 120.197ZM285.696 115.675C285.163 115.535 284.614 116.01 284.512 116.552C284.411 117.094 284.649 117.646 284.967 118.096C285.112 118.3 285.278 118.495 285.488 118.633C286.028 118.986 286.749 118.895 287.351 118.662C287.592 118.568 287.826 118.454 288.059 118.339L288.059 118.339C288.407 118.169 288.754 117.999 289.127 117.898C288.257 116.819 287.036 116.028 285.696 115.675ZM295.309 124.715C295.537 124.262 295.39 123.693 295.081 123.291C294.772 122.889 294.327 122.618 293.892 122.356L293.181 121.928C292.908 121.764 292.582 121.594 292.286 121.712C291.79 121.909 291.882 122.633 292.073 123.131C292.347 123.847 292.672 124.597 293.305 125.03C293.937 125.464 294.966 125.401 295.309 124.715ZM239.072 120.064C239.483 120.46 239.541 121.19 239.15 121.607C238.76 122.023 237.969 121.977 237.675 121.487C237.518 121.224 237.514 120.909 237.51 120.597C237.509 120.498 237.508 120.4 237.502 120.303C237.477 119.901 237.141 118.971 237.053 118.757C235.962 117.863 235.547 116.392 235.326 114.998C235.161 113.957 235.078 112.854 235.487 111.883C235.896 110.911 236.937 110.134 237.968 110.353C239.163 110.608 239.735 111.944 240.12 113.104C240.434 114.051 240.64 115.325 239.788 115.843C239.642 114.579 239.467 113.243 238.675 112.247C238.172 111.615 237.137 111.201 236.6 111.804C236.369 112.063 236.313 112.431 236.287 112.777C236.086 115.455 237.136 118.202 239.072 120.064ZM237.076 126.3L236.919 126.324C235.518 126.541 234.062 126.766 232.961 125.504C231.82 124.194 231.422 121.338 232.04 120.593C232.91 119.546 234.297 118.928 235.662 119.018C235.721 119.159 235.684 119.476 235.646 119.796C235.607 120.122 235.568 120.451 235.63 120.6C234.684 120.108 233.391 120.446 232.806 121.338C232.734 121.448 232.669 121.583 232.709 121.709C233.02 122.699 233.359 123.73 234.1 124.457C234.841 125.183 236.115 125.479 236.919 124.824C237.176 124.614 237.358 124.334 237.54 124.054L237.54 124.054C237.687 123.828 237.834 123.601 238.021 123.411C238.44 122.983 239.29 122.843 239.553 123.382C238.917 124.02 238.313 124.691 237.745 125.39C237.609 125.556 237.474 125.803 237.615 125.966C237.959 126.365 238.025 126.905 238.09 127.44C238.109 127.589 238.127 127.737 238.151 127.881C238.261 128.545 238.68 129.299 239.353 129.282C239.921 129.269 240.303 128.716 240.588 128.225L241.659 126.377C241.97 126.415 242.172 126.756 242.166 127.069C242.159 127.382 242 127.67 241.839 127.939C241.345 128.769 240.8 129.568 240.209 130.331C240.029 130.564 239.822 130.808 239.536 130.875C239.239 130.944 238.933 130.804 238.678 130.637C237.293 129.736 236.609 127.885 237.076 126.3ZM243.18 114.826C243.656 114.587 244.3 114.593 244.659 114.986C245.452 116.903 244.919 119.29 243.387 120.688C243.35 120.721 243.313 120.754 243.276 120.788C243.023 121.013 242.762 121.246 242.675 121.568C242.575 121.938 242.894 122.423 243.258 122.302C243.511 122.218 243.591 121.934 243.668 121.664L243.668 121.664L243.668 121.663L243.668 121.663L243.668 121.663L243.668 121.663L243.668 121.663C243.685 121.605 243.701 121.547 243.719 121.493C243.94 120.814 244.681 120.346 245.389 120.438C246.298 120.83 248.141 121.89 247.793 124.699C247.481 127.212 246.239 127.094 245.796 127.052C245.743 127.047 245.702 127.043 245.675 127.045C244.472 127.115 243.752 125.805 243.166 124.74L243.134 124.682C242.858 124.18 242.235 123.639 241.804 124.015C241.635 124.162 241.584 124.4 241.553 124.621C241.505 124.96 241.491 125.34 241.706 125.606C241.921 125.873 242.444 125.87 242.536 125.54C242.646 126.54 243.193 127.506 244.054 128.027C244.915 128.548 246.083 128.565 246.906 127.986C247.5 127.567 247.869 126.9 248.141 126.226C248.391 125.608 248.579 124.955 248.593 124.288C248.627 122.666 247.609 121.165 246.298 120.209C245.956 119.96 245.548 119.651 245.591 119.23L245.784 117.351C245.877 116.447 245.965 115.502 245.64 114.653C245.315 113.803 244.439 113.09 243.547 113.269C242.833 113.412 242.388 114.018 241.937 114.631C241.527 115.188 241.114 115.75 240.491 115.975C239.802 116.223 239.767 117.171 239.858 117.898C239.888 118.142 239.924 118.4 240.078 118.593C240.231 118.786 240.545 118.873 240.726 118.706C240.68 117.656 241.37 116.733 242.025 115.911C242.357 115.494 242.704 115.065 243.18 114.826ZM180.921 155.423C182.267 154.236 184.129 153.844 185.913 153.653C192.182 152.984 198.647 154.304 204.152 157.376L204.199 157.402C204.292 157.454 204.385 157.507 204.478 157.559C205.484 158.127 206.514 158.709 207.658 158.78C208.017 158.802 208.376 158.773 208.735 158.743C209.049 158.717 209.363 158.691 209.677 158.7C210.429 158.721 211.132 158.833 211.826 158.943C213.129 159.15 214.405 159.353 215.929 158.945C218.113 158.36 218.434 158.933 218.666 160.107C218.899 161.281 218.053 162.467 216.965 162.966C215.878 163.465 214.62 163.414 213.439 163.224C213.097 163.169 212.756 163.104 212.415 163.038C211.578 162.877 210.741 162.716 209.891 162.714C208.209 162.711 206.539 163.322 204.895 163.923C202.571 164.773 200.3 165.604 198.12 164.656C197.349 164.32 196.461 164.558 195.656 164.8L187.139 167.351C185.031 167.983 182.851 168.621 180.665 168.371C178.93 168.171 177.329 167.428 175.727 166.685C174.114 165.936 172.5 165.187 170.75 164.996C169.275 164.835 167.781 165.079 166.295 165.323C164.403 165.632 162.523 165.94 160.712 165.406C160.81 164.938 161.321 164.702 161.768 164.534C164.498 163.514 167.273 162.483 170.18 162.264C170.659 162.228 171.147 162.211 171.637 162.195C173.414 162.136 175.211 162.076 176.631 161.072C177.67 160.338 178.314 159.226 178.96 158.108C179.524 157.134 180.09 156.157 180.921 155.423ZM199.55 163.648C201.316 164.152 203.017 163.387 204.75 162.607C205.955 162.065 207.176 161.516 208.446 161.381C209.684 161.25 210.915 161.52 212.144 161.791C213.427 162.073 214.709 162.354 215.996 162.179C216.906 162.055 217.98 161.206 217.501 160.423C217.221 159.965 216.591 159.909 216.055 159.904L207.312 159.819C206.365 159.81 205.337 159.773 204.601 159.175C203.07 157.932 201.206 157.17 199.326 156.573C196.754 155.756 194.094 155.215 191.407 154.985C188.472 154.733 185.506 154.852 182.602 155.338L179.183 159.778C177.784 161.594 175.908 163.613 173.646 163.238C170.694 162.749 167.591 163.219 164.917 164.562C167.607 163.673 170.584 163.683 173.267 164.588C174.054 164.854 174.814 165.193 175.573 165.532C176.457 165.927 177.342 166.322 178.268 166.6C182.55 167.885 187.147 166.548 191.332 164.975L191.482 164.919C194.085 163.94 196.883 162.887 199.55 163.648ZM175.162 200.146C176.673 198.33 178.141 196.563 180.392 196.478C183.894 196.345 187.331 195.093 190.153 193.016C190.837 192.512 191.519 191.914 191.767 191.101C192.014 190.288 191.63 189.233 190.801 189.047C189.194 188.687 188.581 187.012 187.978 185.365C187.785 184.837 187.593 184.313 187.369 183.835C186.418 181.799 184.434 180.28 182.22 179.891C181.381 179.744 180.528 179.75 179.674 179.757H179.674H179.674C178.917 179.763 178.16 179.769 177.412 179.668C175.82 179.453 174.119 178.519 173.828 176.939C173.092 172.945 168.55 170.111 164.639 171.206C163.525 171.517 162.579 170.8 161.602 170.059C160.832 169.474 160.042 168.876 159.137 168.758C158.35 168.656 157.569 168.936 156.824 169.212C155.146 169.834 153.423 170.482 152.099 171.687C150.776 172.892 149.932 174.803 150.494 176.502C150.829 177.515 149.994 178.538 149.111 179.137C148.928 179.261 148.739 179.38 148.548 179.499C147.817 179.958 147.076 180.422 146.706 181.184C146.149 182.332 146.661 183.716 147.376 184.773C148.164 185.935 149.212 186.978 150.25 188.012C152.246 189.999 154.207 191.951 154.221 194.649L143 193.752C141.722 193.65 140.263 193.61 139.362 194.523C138.823 195.068 138.593 195.243 138.363 195.418C137.903 195.768 137.443 196.119 134.512 199.432C133.091 201.038 131.552 203.61 133.019 204.083C134.5 204.56 137.966 202.647 140.367 201.321C141.625 200.626 142.591 200.093 142.827 200.149C142.456 200.373 138.66 202.346 136.239 203.605L136.237 203.606C135.132 204.18 134.315 204.605 134.24 204.647C132.839 205.431 130.951 208.38 132.287 209.676C133.316 210.673 135.165 209.826 135.491 208.545C135.47 208.707 135.415 208.905 135.357 209.116C135.118 209.976 134.818 211.056 136.533 210.834C138.452 210.584 139.245 210.227 140.813 209.52C140.99 209.441 141.177 209.356 141.377 209.267C140.504 210.056 139.419 210.501 138.291 210.963L138.291 210.963L138.291 210.963C137.612 211.242 136.917 211.527 136.244 211.897C135.072 212.542 135.072 214.654 139.364 214.423C140.094 214.384 140.825 214.337 141.558 214.29C144.516 214.099 147.491 213.907 150.441 214.227C151.912 214.386 153.443 214.648 154.618 215.545C156.021 216.617 156.66 218.385 157.259 220.047L157.267 220.07C162.454 234.444 170.122 247.771 177.772 261C180.297 265.366 183.361 270.142 188.284 271.242C175.24 255.366 165.011 237.184 158.214 217.793C157.427 215.548 155.3 213.983 153.033 213.263C150.766 212.543 148.343 212.539 145.964 212.542C144.457 212.544 143.231 212.762 142.045 212.974C140.486 213.252 138.995 213.518 137.018 213.263C135.426 213.058 136.773 212.501 138.687 211.71C140.615 210.913 143.119 209.878 143.768 208.726C143.02 207.537 141.179 208.048 140.003 208.815C138.827 209.582 135.184 210.768 136.063 209.267C137.151 207.408 139.088 206.404 141.04 205.391C141.657 205.071 142.275 204.751 142.868 204.402C143.517 204.021 143.03 202.889 142.287 202.778C141.543 202.666 140.859 203.161 140.27 203.629C139.621 204.144 138.881 204.891 138.116 205.663L138.116 205.663C136.319 207.474 134.39 209.419 133.206 208.815C130.63 207.503 138.816 203.17 143.349 200.771L143.358 200.766L143.367 200.761L143.372 200.758C143.659 200.606 143.931 200.463 144.184 200.328C143.155 198.556 140.395 199.429 138.842 200.765L138.743 200.851L138.597 200.977C137.096 202.277 135.333 203.804 133.515 203.123C132.434 202.718 133.999 201.434 135.564 200.15L135.564 200.149C136.346 199.507 137.129 198.865 137.581 198.333C138.34 197.439 139.123 196.524 140.152 195.962C141.411 195.273 142.903 195.183 144.337 195.17C147.91 195.138 151.485 195.49 154.983 196.218C160.072 199.591 164.472 203.998 167.836 209.093C175.688 220.988 183.379 232.988 191.069 244.989C191.158 245.127 191.319 245.393 191.531 245.744C192.661 247.611 195.238 251.869 196.046 251.97C196.938 252.082 197.862 251.339 198.517 250.761L229.954 231.192C235.064 228.011 240.718 224.703 246.687 225.476C256.357 226.73 266.167 227.869 275.831 226.571C285.495 225.273 295.141 221.271 301.403 213.796C290.089 222.809 275.235 227.251 260.83 225.929C258.869 225.749 256.893 225.469 254.914 225.189L254.914 225.189C248.946 224.344 242.959 223.496 237.328 225.383C235.88 225.868 234.412 226.527 232.941 227.188C228.778 229.057 224.592 230.937 220.775 228.912C217.309 227.073 212.974 228.025 209.525 229.897C206.077 231.768 201.733 234.323 204.753 237.563C207.773 240.802 201.467 239.325 197.946 237.593C194.426 235.862 193.601 229.821 197.197 227.375C195.587 229.204 195.641 232.87 197.993 233.506C200.346 234.143 202.818 232.982 204.753 231.5C206.943 229.823 206.637 227.664 206.364 225.733C206.072 223.669 205.817 221.867 208.689 221.196C210.656 220.735 212.684 220.878 214.716 221.02C216.568 221.15 218.424 221.281 220.238 220.954C223.23 220.415 225.774 218.716 228.333 217.007C229.933 215.939 231.538 214.866 233.263 214.07C237.75 212 242.837 211.882 247.795 211.767L247.806 211.767C248.094 211.76 248.381 211.754 248.668 211.747C257.735 211.525 266.978 210.762 275.331 207.228C283.683 203.693 291.108 196.964 293.456 188.204C295.389 180.993 293.561 172.882 288.722 167.197C283.883 161.513 276.167 158.414 268.74 159.171C264.861 159.567 261.113 160.931 257.387 162.287C252.277 164.147 247.21 165.991 241.906 165.298C234.195 164.291 228.277 158.205 223.02 152.474C229.288 153.435 235.821 152.593 241.641 150.076C244.606 148.793 247.379 147.093 250.147 145.395C253.929 143.076 257.701 140.762 261.939 139.53C272.456 136.471 284.169 140.902 291.851 148.709C299.532 156.517 303.675 167.19 305.862 177.923C307.287 184.916 307.963 192.024 308.639 199.135L308.639 199.136L308.639 199.137C309 202.938 309.362 206.74 309.838 210.525C310.078 212.433 310.346 214.352 310.614 216.278C312.184 227.523 313.784 238.987 310.013 249.56C306.792 258.59 300.007 265.824 293.349 272.723C284.304 282.096 274.982 291.512 263.553 297.762C252.981 303.544 241.043 306.363 229.126 308.147C219.778 309.546 210.31 310.348 200.87 309.863C181.123 308.847 162.134 302.259 143.551 295.499C136.873 293.07 129.896 290.57 122.839 291.408C119.214 291.838 115.692 293.137 112.195 294.426C107.005 296.34 101.872 298.233 96.5475 297.233C91.6534 296.314 87.6723 293.116 83.6944 289.921C79.6572 286.677 75.6234 283.437 70.642 282.585C75.0954 281.848 79.4859 283.896 83.8017 285.909C88.7859 288.234 93.6704 290.513 98.4368 288.402C115.767 280.725 135.694 283.232 154.462 285.885L177.536 289.146C180.771 289.604 183.972 288.874 187.189 288.141L187.189 288.141C189.082 287.71 190.98 287.277 192.892 287.085C197.849 286.586 202.727 287.703 207.621 288.822L207.622 288.822C210.209 289.415 212.801 290.008 215.411 290.363C234.963 293.029 255.536 280.555 262.214 261.987C263.087 259.559 263.79 256.987 264.494 254.411C266.524 246.978 268.564 239.508 274.743 235.358C275.389 234.924 276.083 234.522 276.78 234.118L276.78 234.118C278.97 232.849 281.181 231.568 281.976 229.254C276.125 231.172 271.014 235.259 267.854 240.543C265.632 244.259 264.397 248.425 263.162 252.596L263.161 252.597C262.596 254.504 262.031 256.412 261.371 258.278C255.274 275.516 238.648 289.914 220.396 288.834C216.723 288.617 213.11 287.808 209.503 287C204.991 285.99 200.488 284.982 195.89 285.136C193.325 285.222 190.796 285.669 188.265 286.117L188.264 286.117L188.264 286.117C186.198 286.483 184.132 286.848 182.044 287.017C175.174 287.575 168.33 285.996 161.617 284.429C176.733 280.702 192.051 277.793 207.48 275.72C218.838 274.194 231.922 272.097 237.738 262.222C241.886 255.179 248.637 250.307 255.383 245.438C262.274 240.464 269.16 235.494 273.259 228.219C253.8 247.753 225.777 264.541 185.373 272.795C185.094 272.85 184.818 272.905 184.547 272.962C184.823 272.907 185.098 272.851 185.373 272.795C188.167 272.251 191.362 271.83 194.837 271.372L194.838 271.372C208.211 269.611 225.738 267.302 240.516 255.314C237.978 261.093 233.439 265.97 227.856 268.915C222.9 271.53 217.3 272.606 211.794 273.65L177.558 280.141C166.963 282.149 156.215 284.167 145.465 283.312C142.48 283.074 139.499 282.616 136.522 282.158H136.522H136.522C130.735 281.268 124.96 280.38 119.187 281.119C115.414 281.602 111.788 282.766 108.157 283.931L108.157 283.931C105.908 284.653 103.658 285.375 101.371 285.937C95.3891 287.405 88.6054 287.624 83.5457 284.112C73.5471 277.171 57.6361 281.852 52.9883 293.101C58.2989 286.672 67.897 284.202 75.651 287.269C78.817 288.522 81.6181 290.563 84.4064 292.595C87.9729 295.193 91.5184 297.777 95.7797 298.675C101.572 299.896 107.43 297.765 113.227 295.656C119.729 293.292 126.155 290.954 132.325 293.404C153.237 301.708 174.956 308.541 197.366 310.552C219.776 312.563 243.036 309.517 262.919 298.984C273.12 293.58 282.241 286.331 290.716 278.494C298.709 271.102 306.368 262.862 310.25 252.691C314.527 241.485 313.811 229.079 313.034 217.11C311.619 195.326 309.87 172.484 298.076 154.115C294.115 147.946 288.974 142.363 282.485 138.953C275.995 135.543 268.039 134.516 261.245 137.271C257.489 138.794 254.118 141.058 250.742 143.326C248.892 144.568 247.041 145.812 245.124 146.934C237.843 151.2 229.229 152.986 221.13 150.619C218.108 149.736 215.25 148.403 212.39 147.071C209.675 145.805 206.959 144.539 204.102 143.658C198.702 141.991 192.947 141.75 187.314 142.195C165.529 143.914 144.752 156.405 133.436 175.099C122.12 193.793 120.751 218.257 130.352 237.887C139.952 257.517 160.375 271.538 182.181 272.962C179.474 271.284 176.335 270.654 173.183 270.022C171.404 269.665 169.62 269.307 167.908 268.759C163.162 267.242 158.392 262.899 159.587 258.062C160.612 253.913 156.939 250.102 153.229 247.981C152.507 247.568 151.759 247.172 151.009 246.774C147.906 245.13 144.751 243.458 143.095 240.441C139.526 233.943 145.088 226.356 150.268 221.051C144.506 224.359 140.222 230.143 138.736 236.618C142.201 242.628 147.734 247.418 154.177 249.988C157.485 254.304 159.091 259.889 158.583 265.304C139.726 253.786 126.878 232.959 125.046 210.939C124.608 205.682 124.8 200.206 127.005 195.414C131.947 184.672 137.023 173.755 144.966 164.996C157 151.726 175.402 144.509 193.249 146.06C211.096 147.612 227.977 157.897 237.54 173.045C234.052 171.12 230.448 169.156 226.489 168.71C222.53 168.265 218.082 169.71 216.149 173.195C214.686 175.832 210.7 173.748 208.592 171.589C206.485 169.431 202.201 167.706 201.127 170.525L202.203 176.693C198.109 174.674 193.133 180.789 195.942 184.388C196.896 185.61 198.342 186.325 199.738 187.001C207.553 190.784 216.652 194.615 224.589 191.094C228.661 189.287 233.132 188.385 237.587 188.47C238.661 188.491 239.78 188.582 240.7 189.136C241.421 189.569 241.94 190.235 242.462 190.905C242.813 191.355 243.166 191.806 243.581 192.189C244.614 193.143 246.578 193.457 247.214 192.203C248.892 195.196 250.603 198.286 251.028 201.69C251.454 205.095 250.287 208.933 247.336 210.684C244.385 212.435 239.735 210.96 239.143 207.58C238.579 204.358 235.271 203.543 231.803 202.689C228.868 201.966 225.818 201.215 224.223 198.951C222.548 196.573 219.109 196.095 216.31 196.887C214.26 197.467 212.426 198.574 210.592 199.682C209.923 200.086 209.254 200.49 208.575 200.868C207.496 201.469 206.375 202.014 205.254 202.559L205.253 202.559C202.42 203.937 199.589 205.314 197.446 207.582C194.454 210.748 193.624 216.59 197.197 219.081C198.533 220.012 208.575 228.219 203.053 231C194.821 235.147 197.077 227.739 197.944 226.422C193.973 226.896 192.16 232.428 194.313 235.799C196.465 239.17 201.287 241.275 205.199 240.441C207.136 240.029 206.567 238.992 205.895 237.771C205.212 236.527 204.422 235.091 206.072 233.928C205.756 235.13 206.953 235.544 208.279 236.003C209.317 236.363 210.434 236.749 210.968 237.563C211.929 239.03 210.436 240.84 209.077 241.949L199.098 250.09C198.963 250.162 198.79 250.269 198.592 250.391C197.863 250.841 196.801 251.497 196.046 251.371C195.409 251.266 188.743 239.593 187.388 233.596C187.232 232.904 187.11 232.194 186.988 231.485L186.988 231.484L186.988 231.484L186.988 231.483C186.549 228.925 186.113 226.385 184.075 224.802C183.06 224.013 181.859 223.421 180.669 222.833C178.569 221.797 176.5 220.776 175.537 218.723C174.86 217.279 173.861 216.028 172.861 214.776C171.999 213.698 171.137 212.618 170.478 211.412C169.054 208.806 169.017 204.91 171.624 203.488C173.015 202.729 174.099 201.425 175.162 200.146ZM168.373 172.658C170.426 172.734 171.598 174.967 172.379 176.867C173.16 178.767 174.45 180.973 176.503 180.9C178.517 180.827 180.575 180.76 182.505 181.342C184.435 181.923 186.249 183.281 186.831 185.211C186.942 185.582 187.016 185.98 187.09 186.378C187.28 187.406 187.47 188.431 188.308 188.974C188.487 189.089 188.695 189.185 188.903 189.281C189.416 189.518 189.925 189.753 189.976 190.277C190.001 190.536 189.888 190.788 189.76 191.014C188.447 193.344 185.598 194.285 182.966 194.756C182.587 194.824 182.204 194.887 181.819 194.951C179.535 195.328 177.206 195.713 175.378 197.091C174.464 197.78 173.741 198.673 173.017 199.568L173.017 199.568C172.398 200.333 171.779 201.098 171.038 201.738C170.753 201.985 170.449 202.213 170.146 202.441C169.579 202.867 169.012 203.293 168.565 203.84C167.879 204.68 167.547 205.96 168.183 206.838C165.404 203.066 162.004 199.753 158.161 197.073C157.118 196.346 155.932 195.485 155.841 194.217C155.616 191.094 153.113 188.762 150.786 186.593L150.786 186.593L150.785 186.592C150.589 186.409 150.393 186.227 150.201 186.045C149.092 185.002 147.943 183.521 148.508 182.107C148.828 181.305 149.596 180.832 150.362 180.36C151.14 179.881 151.917 179.402 152.223 178.58C152.465 177.931 152.345 177.242 152.223 176.546C152.13 176.008 152.035 175.467 152.106 174.937C152.228 174.032 152.596 173.797 153.514 173.211C154.139 172.812 155.018 172.25 156.247 171.205C158.111 169.62 160.773 170.817 163.078 171.854C164.524 172.504 165.831 173.092 166.71 172.888C167.254 172.762 167.813 172.638 168.373 172.658ZM182.806 225.382C184.116 226.874 185.483 228.489 185.744 230.457C185.877 231.46 185.7 232.502 185.243 233.404L179.321 224.178C179.257 224.079 179.191 223.957 179.238 223.848C179.316 223.672 179.578 223.726 179.752 223.809L182.186 224.975C182.41 225.082 182.642 225.195 182.806 225.382ZM245.133 179.768C245.08 180.263 245.257 180.778 245.602 181.137C246.053 181.363 246.531 181.145 247.016 180.923C247.241 180.82 247.469 180.716 247.696 180.656C248.112 180.546 248.551 180.588 248.98 180.63L254.24 181.152C254.564 180.651 253.901 180.095 253.339 179.896C250.714 178.967 247.785 178.922 245.133 179.768ZM273.8 189.247C271.659 192.531 268.31 195.008 264.543 196.093L264.509 196.938C268.706 196.001 272.517 193.436 274.965 189.901C275.247 189.494 275.478 188.859 275.073 188.573C274.632 188.262 274.095 188.795 273.8 189.247ZM265.339 180.882C264.825 180.739 264.131 180.607 263.882 181.078C264.776 181.89 265.78 182.748 266.986 182.785C267.85 182.81 268.66 182.404 269.428 182.009C271.233 181.078 273.055 180.136 274.618 178.839C274.559 178.291 273.844 178.037 273.322 178.212C272.889 178.358 272.555 178.687 272.226 179.013C272.159 179.079 272.092 179.146 272.024 179.21C270.285 180.868 267.653 181.526 265.339 180.882ZM260.547 192.037C260.686 192.267 260.859 192.511 261.121 192.571C261.308 192.614 261.501 192.553 261.683 192.493L264.528 191.553C264.528 191.218 264.17 190.985 263.836 190.952C263.649 190.933 263.462 190.955 263.274 190.977C263.127 190.995 262.98 191.012 262.832 191.01C261.693 190.992 260.901 189.837 260.617 188.734C260.517 188.35 260.453 187.955 260.389 187.56C260.269 186.821 260.149 186.085 259.802 185.429C259.146 185.398 258.908 186.286 258.949 186.941C259.064 188.735 259.617 190.499 260.547 192.037ZM252.465 185.753C253.133 185.031 254.132 184.071 254.896 184.691C253.596 187.239 250.763 188.925 247.903 188.852C249.485 191.843 250.506 195.129 250.897 198.49C250.965 199.081 251.343 199.584 251.725 200.039C253.652 202.335 256.129 204.275 259.026 205.043C264.387 206.465 270.15 203.537 273.651 199.234C277.152 194.932 278.85 189.479 280.406 184.155C280.856 182.618 281.523 180.848 283.065 180.417C284.732 179.951 286.12 178.592 286.621 176.935C287.122 175.278 286.719 173.378 285.588 172.067C284.31 170.584 281.555 170.158 280.58 171.856C280.202 172.515 279.277 172.669 278.554 172.433C277.969 172.242 277.474 171.863 276.982 171.486C276.866 171.397 276.75 171.308 276.634 171.222C272.843 168.426 267.786 168.267 263.076 168.218C261.585 168.202 260.076 168.189 258.628 168.541C256.94 168.951 255.435 169.828 253.925 170.708C252.755 171.39 251.583 172.073 250.321 172.541C246.627 173.912 242.246 173.24 239.132 170.825C242.514 176.177 245.337 181.881 247.541 187.816C249.375 187.872 251.219 187.1 252.465 185.753ZM202.13 170.803C202.326 171.433 202.618 172.035 202.908 172.636C203.362 173.574 203.814 174.507 203.896 175.536C204.031 177.223 202.262 179.153 200.833 178.247C199.349 177.307 197.159 178.189 196.467 179.804C195.775 181.418 196.43 183.404 197.749 184.564C198.744 185.439 200.029 185.898 201.279 186.338C202.791 186.869 204.494 187.586 206.262 188.33C210.725 190.208 215.606 192.262 218.877 191.956C220.515 191.803 223.568 190.014 224.607 189.37C226.589 188.14 228.884 186.861 231.127 187.5C233.952 188.306 237.064 188.058 239.726 186.817C241.024 186.212 242.228 187.8 242.76 189.13C243.292 190.461 244.351 192.099 245.708 191.643C246.458 191.391 246.861 190.53 246.837 189.74C246.813 188.95 246.458 188.213 246.11 187.503L239.793 174.61C238.107 175.082 236.611 174.105 235.071 173.098C234.024 172.414 232.956 171.716 231.795 171.453C231.212 171.32 230.613 171.301 230.013 171.283C229.389 171.263 228.766 171.244 228.162 171.096C227.515 170.938 226.912 170.639 226.311 170.34C225.578 169.976 224.847 169.613 224.042 169.51C222.314 169.287 220.666 170.311 219.407 171.516C218.994 171.912 218.602 172.333 218.21 172.753L218.21 172.753L218.21 172.753C217.409 173.613 216.61 174.472 215.63 175.111C214.172 176.064 212.103 176.406 210.752 175.306C210.229 174.881 209.88 174.3 209.531 173.717L209.53 173.717L209.53 173.717C209.357 173.429 209.184 173.14 208.989 172.87C207.489 170.787 204.532 169.896 202.13 170.803ZM196.531 214.682C197.118 216.432 198.323 217.965 199.687 219.209C199.985 219.48 200.325 219.743 200.667 220.007C201.789 220.875 202.939 221.764 202.745 223.074C205.275 220.399 209.059 218.965 212.726 219.29C213.327 219.344 213.922 219.441 214.517 219.538C215.155 219.643 215.793 219.747 216.437 219.797C221.009 220.153 225.299 217.78 229.27 215.484L237.824 210.538C238.485 209.165 237.974 207.45 236.953 206.319C235.932 205.187 234.497 204.528 233.074 203.981C231.533 203.387 229.928 202.882 228.276 202.848C228.12 202.845 227.959 202.844 227.795 202.842C226.27 202.827 224.499 202.81 223.974 201.453C223.201 199.458 221.315 197.938 219.201 197.606C217.088 197.275 214.827 198.145 213.481 199.808C212.237 201.344 210.29 202.036 208.406 202.706C208.179 202.786 207.953 202.867 207.73 202.948C205.209 203.866 202.786 205.051 200.514 206.478C198.609 207.674 196.638 209.342 196.531 211.589C196.519 211.837 196.493 212.103 196.466 212.377C196.389 213.161 196.305 214.01 196.531 214.682ZM282.65 201.232C286.208 198.458 289.324 195.002 291.158 190.88C292.993 186.758 293.454 181.925 291.86 177.704C290.912 175.195 289.291 172.992 287.506 170.99C284.405 167.515 280.349 164.386 275.692 164.321C274.139 164.299 272.604 164.623 271.085 164.945L262.275 166.813C267.267 166.72 272.274 167.533 276.979 169.202L277.017 169.216C278.076 169.591 279.234 170.002 280.284 169.608C282.862 168.64 286.049 169.714 287.516 172.045C288.983 174.375 288.572 177.714 286.585 179.619C286.183 180.005 285.731 180.332 285.279 180.659C284.779 181.021 284.279 181.382 283.848 181.822C282.561 183.135 282.035 184.97 281.524 186.754C281.465 186.959 281.407 187.164 281.347 187.367C278.3 197.752 270.354 207.256 259.769 209.508C268.011 209.245 276.147 206.302 282.65 201.232ZM273.044 163.797C275.741 163.499 278.542 163.228 281.108 164.108C283.456 164.913 285.377 166.604 287.231 168.255L289.914 170.644C285.914 164.271 278.523 160.172 270.999 160.153C267.38 160.144 263.808 161.013 260.399 162.225C259.315 162.61 258.243 163.031 257.172 163.451C256.806 163.595 256.441 163.738 256.075 163.88C252.094 165.425 247.968 166.823 243.699 166.927C239.429 167.031 234.943 165.672 232.122 162.466C231.997 162.325 231.874 162.179 231.751 162.032C231.15 161.318 230.537 160.59 229.666 160.3C232.164 163.52 234.714 166.791 238.051 169.132C241.387 171.473 245.688 172.786 249.599 171.639C251.369 171.12 252.943 170.142 254.52 169.164C255.237 168.718 255.955 168.273 256.693 167.87C261.655 165.158 267.423 164.417 273.044 163.797ZM212.639 238.526C212.797 239.198 213.544 239.87 214.11 239.476C217.068 237.418 220.036 235.354 223.241 233.706C223.585 233.529 223.933 233.355 224.283 233.182L224.283 233.182C226.025 232.315 227.782 231.441 229.121 230.047C227.172 230.996 224.87 230.851 222.748 230.413C222.07 230.273 221.396 230.105 220.723 229.937C219.288 229.579 217.854 229.221 216.381 229.134C214.527 229.025 212.649 229.358 210.945 230.096C209.921 230.54 208.914 231.176 208.389 232.161C207.863 233.147 207.988 234.543 208.906 235.18C209.332 235.476 209.871 235.584 210.401 235.691C211.1 235.832 211.784 235.969 212.177 236.53C212.439 236.904 212.487 237.363 212.536 237.825C212.56 238.062 212.585 238.299 212.639 238.526ZM257.188 206.812C256.356 206.312 255.683 205.592 255.021 204.883L251.775 201.399L252.154 207.161C252.19 207.719 252.225 208.293 252.047 208.822C251.87 209.351 251.426 209.832 250.869 209.877C250.576 209.9 250.569 210.389 250.822 210.54C251.074 210.691 251.395 210.607 251.676 210.52L259.333 208.133C259.808 207.985 260.298 207.828 260.669 207.498C259.476 207.681 258.222 207.434 257.188 206.812ZM273.397 173.539C270.865 173.371 268.343 173.889 265.858 174.405C265.208 174.54 264.553 174.677 263.943 174.939C262.52 175.55 261.475 176.781 260.483 177.971C260.336 178.147 260.18 178.351 260.204 178.58C260.244 178.969 260.793 179.107 261.135 178.918C261.419 178.761 261.598 178.478 261.774 178.2C261.811 178.143 261.846 178.086 261.883 178.031C263.186 176.062 265.753 175.458 268.071 175.012C270.035 174.634 272.058 174.257 274.021 174.641C274.364 174.708 274.557 174.176 274.346 173.898C274.134 173.62 273.745 173.562 273.397 173.539Z" fill="#00160A"/>
</svg>
