<svg width="100" height="100" viewBox="0 0 100 100" fill="none" xmlns="http://www.w3.org/2000/svg">
<path fill-rule="evenodd" clip-rule="evenodd" d="M44.3738 83.524C40.4821 85.4738 35.9197 85.6326 31.6026 85.0773C23.2447 84.0023 14.8045 79.9505 10.6487 72.6198C8.85616 69.4577 7.95082 65.8722 7.32007 62.2926C6.47769 57.5118 6.13741 52.3723 8.25422 48.0038C10.0387 44.3211 13.3504 41.6412 16.6499 39.2202C20.1079 36.6829 23.8539 34.2161 28.1128 33.709C40.3984 33.4657 39.1539 38.0808 51.9843 30.7406C55.7142 28.6068 66.8035 32.2696 70.5503 33.4657C74.2971 34.6617 81.6908 38.3517 86.7049 42.7351C88.8008 44.5673 90.734 46.6643 91.912 49.1867C93.6756 52.9633 93.59 57.3629 92.7672 61.449C91.9372 65.5705 90.1352 69.8572 86.4749 71.9256C84.8213 72.8601 82.9144 73.2609 81.0212 73.4143C73.1145 74.0548 64.7038 70.6792 57.4683 73.9309C52.5149 76.1569 49.229 81.0914 44.3738 83.524Z" fill="#B2C3D6"/>
<path fill-rule="evenodd" clip-rule="evenodd" d="M14.728 49.5992C16.2137 48.1358 17.6101 46.6269 18.5499 45.3118C19.8434 43.5016 21.7401 41.7804 23.9875 41.4484C26.6084 41.0611 29.0154 42.868 30.9205 44.709C33.5525 47.2524 35.9146 50.0749 37.9543 53.114C37.1361 53.2206 35.373 54.441 33.0299 54.4022C31.6507 54.3794 30.0029 53.1503 28.4101 53.0682C27.3037 53.0112 26.0959 54.1693 24.9819 54.0809C23.034 53.9265 21.2122 52.4924 19.569 52.233C18.5901 52.0784 17.2691 53.0514 16.5166 52.8562C14.4487 52.3198 13.8359 50.478 14.728 49.5992Z" fill="white"/>
<path fill-rule="evenodd" clip-rule="evenodd" d="M59.2792 72.3679C65.7004 70.2507 72.6585 72.7044 79.4191 72.6138C82.4143 72.5737 85.6161 71.9126 87.6781 69.7398C83.1618 67.0807 79.7338 62.852 77.2367 58.2441C74.7397 53.6362 73.0981 48.6231 71.4698 43.6415C69.3274 42.4199 66.5699 44.4857 64.2183 43.7428C63.0166 43.3631 61.5815 42.3318 60.7191 43.2508C60.1986 43.8055 59.2291 43.4792 58.7228 42.9114C58.2165 42.3437 57.9345 41.5889 57.3636 41.0862C56.7927 40.5835 55.709 40.5202 55.4185 41.2232C54.9156 42.4403 54.3854 43.6973 53.4212 44.5942C52.4569 45.491 50.9281 45.9239 49.7987 45.2467C48.9165 44.7178 48.5001 43.6885 47.9862 42.7973C47.4723 41.9062 47.2719 41.1051 46.25 41.2232C42.7983 48.4957 40.2213 55.6449 35.975 62.484C34.1503 65.4228 23.9411 76.6257 18.009 75.1819C12.0768 73.738 12.517 72.6138 10.5137 70.8385C12.6004 75.0839 16.2868 78.4241 20.4959 80.5832C24.705 82.7423 29.4193 83.7804 34.135 84.1554C35.9958 84.3034 37.8831 84.35 39.7147 83.99C47.221 82.5148 52.0141 74.7633 59.2792 72.3679Z" fill="white"/>
<path fill-rule="evenodd" clip-rule="evenodd" d="M52.8424 44.0016C53.5002 43.1518 53.9112 42.1294 54.5889 41.2954C55.2667 40.4614 56.3672 39.8149 57.3925 40.1371C58.3465 40.4368 58.8714 41.4323 59.2968 42.3373C59.5104 42.7918 60.1597 42.8269 60.6276 42.6447C61.0954 42.4625 61.5161 42.133 62.0153 42.0786C63.048 41.9659 63.8259 43.0357 64.8352 43.2821C66.337 43.6486 67.8467 42.116 69.331 42.5485C69.9591 42.7315 70.5027 43.2566 71.1554 43.2118C69.9001 40.2028 68.9546 37.0693 67.6366 34.0872C66.3187 31.1051 64.5805 28.2269 62.0502 26.1708C61.79 25.9594 61.5053 25.7501 61.1728 25.7077C60.8402 25.6653 60.455 25.8541 60.3967 26.1843C60.2235 27.1657 60.0502 28.1472 59.877 29.1287C59.7912 29.6146 59.5648 30.2246 59.0714 30.2154C58.7427 30.2092 58.4903 29.887 58.4451 29.5613C58.3998 29.2357 58.5089 28.9106 58.6165 28.5999C58.9534 27.6265 59.2903 26.6531 59.6273 25.6797C57.3156 26.5138 55.3119 28.0621 53.651 29.8734C51.99 31.6847 50.6467 33.7605 49.3592 35.8538C48.2568 37.6461 47.1889 39.4596 46.1562 41.2929C47.5411 41.0963 48.7472 42.2334 49.5307 43.392C49.9995 44.0853 50.5577 44.9112 51.3946 44.9081C51.9846 44.906 52.4813 44.4682 52.8424 44.0016Z" fill="white"/>
<path fill-rule="evenodd" clip-rule="evenodd" d="M61.8007 23.0534C61.6473 23.0042 61.4865 22.9482 61.3821 22.8256C61.2318 22.6492 61.2418 22.3914 61.2598 22.1604C61.4386 19.8777 61.6173 17.595 61.7961 15.3123C61.8168 15.0478 62.0763 14.8528 62.3387 14.8137C62.6011 14.7747 62.8651 14.8541 63.1185 14.9327C64.7532 15.4393 66.3879 15.946 68.0226 16.4527C68.4216 16.5763 68.4428 17.1301 68.3588 17.5393C68.2748 17.9484 68.2117 18.4738 68.5689 18.6903C70.9529 20.1356 73.4862 21.3346 76.1154 22.2619C76.2853 22.3219 76.2978 22.5803 76.1791 22.7159C76.0604 22.8515 75.8709 22.8952 75.6947 22.9328C73.0254 23.5024 70.4133 24.3402 67.9108 25.4296C67.5606 25.5821 67.1034 25.7214 66.839 25.4457C66.651 25.2496 66.6691 24.943 66.6532 24.6717C66.6372 24.4005 66.5175 24.0756 66.248 24.0414C64.7394 23.8497 63.2485 23.5185 61.8007 23.0534ZM67.4008 18.423C67.7665 17.8439 67.5058 16.9685 66.8829 16.6838C65.4055 16.0087 63.855 15.4937 62.2673 15.1508C62.5312 15.5579 62.5171 16.0786 62.4939 16.5632C62.4045 18.4241 62.3125 20.302 61.8267 22.1005C61.7847 22.256 61.9847 22.3572 62.1419 22.3923C63.55 22.7072 64.9687 22.9748 66.3948 23.1947C66.2773 21.8203 66.1598 20.446 66.0424 19.0716C66.0293 18.9188 66.0172 18.7593 66.0754 18.6174C66.1696 18.3876 66.4314 18.2627 66.6797 18.2556C66.928 18.2486 67.168 18.3364 67.4008 18.423ZM67.0946 19.5067C67.2068 21.1193 67.319 22.7319 67.4311 24.3445C67.441 24.4859 67.4575 24.6419 67.562 24.7377C69.8351 23.7941 72.19 23.0475 74.5915 22.5089C71.9892 21.7618 69.7939 19.7177 67.0946 19.5067Z" fill="#FF6635"/>
<path fill-rule="evenodd" clip-rule="evenodd" d="M44.3747 83.5241C40.4831 85.4739 35.9207 85.6326 31.6035 85.0774C23.2457 84.0024 14.8054 79.9506 10.6497 72.6199C8.85711 69.4578 7.95176 65.8723 7.32101 62.2926C6.97497 60.3288 6.30293 57.3874 7.5335 56.0524C7.80845 55.7541 15.5326 49.5337 18.5498 45.3115C19.8434 43.5013 21.7401 41.7801 23.9875 41.448C26.6083 41.0608 29.0153 42.8677 30.9205 44.7087C33.5525 47.2521 35.9145 50.0746 37.9542 53.1137C35.7065 52.1588 34.0888 50.1742 32.5957 48.2416C31.1026 46.309 29.5598 44.2868 27.374 43.1977C25.1882 42.1085 22.1526 42.2899 20.733 44.2771C17.3493 49.0134 13.0691 53.1069 8.18653 56.2759C7.8193 56.5143 7.7861 57.0296 7.79297 57.4674C7.87234 62.5204 8.43728 68.2748 12.4796 71.3077C15.8559 73.8409 20.757 73.5104 24.4554 71.4761C28.1538 69.4418 30.8586 66.001 33.1807 62.4762C39.9923 52.1367 44.4153 40.3183 51.7367 30.3332C53.4197 28.0378 55.4026 25.7423 58.1142 24.877C59.9236 24.2996 60.4308 21.9909 60.3975 20.0919C60.3643 18.193 60.1846 16.034 61.5032 14.667C61.2252 17.8249 60.9473 20.9827 60.6694 24.1406C64.7193 26.1513 67.0848 30.4322 68.8208 34.6072C71.3988 40.8069 73.1487 47.3324 75.8626 53.4738C78.5766 59.6151 82.4291 65.5161 88.1238 69.0731C90.7598 65.6413 92.2629 60.1476 92.2629 57.0081C90.7598 55.3697 88.6245 52.8068 86.1263 51.6528C83.1482 50.2771 79.8812 52.6889 77.4889 54.9335C78.811 52.9209 80.3984 50.8024 82.738 50.2324C84.6266 49.7723 86.6479 50.4586 88.2149 51.6089C89.7819 52.7593 90.9765 54.3337 92.148 55.885C93.3324 56.2759 93.5909 57.3629 92.7681 61.4491C91.9381 65.5706 90.1362 69.8573 86.4759 71.9257C84.8222 72.8602 82.9154 73.261 81.0221 73.4144C73.1154 74.0549 64.7047 70.6792 57.4692 73.9309C52.5158 76.157 49.2299 81.0915 44.3747 83.5241ZM59.2795 72.3677C65.7007 70.2505 72.6588 72.7042 79.4194 72.6136C82.4146 72.5735 85.6164 71.9124 87.6784 69.7396C83.1621 67.0805 79.734 62.8518 77.237 58.2439C74.74 53.636 73.0984 48.6229 71.4701 43.6413C69.3277 42.4197 66.5702 44.4855 64.2186 43.7426C63.0169 43.3629 61.5818 42.3316 60.7194 43.2506C60.1989 43.8053 59.2294 43.479 58.7231 42.9112C58.2168 42.3435 57.9348 41.5887 57.3639 41.086C56.7929 40.5833 55.7093 40.52 55.4188 41.223C54.9159 42.4401 54.3857 43.6971 53.4215 44.594C52.4572 45.4908 50.9284 45.9237 49.799 45.2465C48.9168 44.7176 48.5004 43.6882 47.9865 42.7971C47.4726 41.906 46.6215 41.0151 45.5996 41.1332C42.1479 48.4058 38.2867 55.4839 34.0404 62.3229C32.2157 65.2618 30.2844 68.1978 27.671 70.4642C25.0576 72.7305 21.6448 74.2807 18.2 73.9655C15.4201 73.7111 12.895 72.2953 10.514 70.8383C12.6007 75.0837 16.2871 78.4239 20.4962 80.583C24.7053 82.7421 29.4196 83.7802 34.1353 84.1552C35.9961 84.3032 37.8834 84.3498 39.715 83.9898C47.2212 82.5146 52.0144 74.7631 59.2795 72.3677ZM52.7086 43.4683C53.3664 42.6185 53.7774 41.5961 54.4551 40.7622C55.1329 39.9282 56.2334 39.2817 57.2587 39.6038C58.2128 39.9035 58.7376 40.899 59.163 41.8041C59.3766 42.2585 60.0259 42.2937 60.4938 42.1114C60.9616 41.9292 61.3823 41.5998 61.8815 41.5453C62.9142 41.4326 63.6921 42.5024 64.7014 42.7488C66.2032 43.1154 67.7129 41.5827 69.1972 42.0152C69.8253 42.1982 70.369 42.7233 71.0216 42.6785C69.7663 39.6695 68.8277 36.7066 67.5098 33.7245C66.1919 30.7424 63.3291 25.4686 61.039 25.1744C58.7228 24.877 55.1781 27.5288 53.5172 29.3401C51.8562 31.1514 50.5129 33.2273 49.2254 35.3205C48.1231 37.1128 47.0551 38.9263 46.0225 40.7596C47.4073 40.563 48.6134 41.7001 49.3969 42.8588C49.8657 43.552 50.4239 44.3779 51.2608 44.3748C51.8508 44.3727 52.3475 43.935 52.7086 43.4683Z" fill="#00160A"/>
<path fill-rule="evenodd" clip-rule="evenodd" d="M42.5015 19.2849C41.0466 19.4325 39.8599 20.7099 39.2605 22.4385C39.1047 22.8878 38.5932 23.0953 37.6957 23.1818L37.6391 23.187C35.652 23.3642 34.3329 23.876 33.6969 25.046L33.6703 25.096C33.6185 25.1955 33.5742 25.2948 33.5094 25.4519L33.4676 25.5541C33.3175 25.923 33.2407 26.079 33.1123 26.2414C32.7122 26.7472 32.1103 26.9028 30.9057 26.939L30.7718 26.9425C27.8858 27.0068 25.8469 27.4453 24.1953 28.5987C23.7228 28.9287 23.4415 29.2562 23.3785 29.676C23.3063 30.1571 23.5858 30.6553 24.0321 30.9288C24.3892 31.1477 24.8175 31.2341 25.3524 31.2357C26.0032 31.2376 26.6539 31.1243 27.2658 30.9026L27.3168 30.8839C27.4089 30.8497 27.4963 30.8149 27.6262 30.7611L27.9012 30.6463C28.4655 30.4129 28.7393 30.3301 29.0826 30.3121C29.6123 30.2843 30.0303 30.4241 30.9204 30.859L31.1076 30.9509C31.3013 31.0457 31.4412 31.1118 31.5782 31.1719L31.6156 31.1881C33.1089 31.8331 34.6355 31.941 37.1151 31.752L37.6043 31.7125L38.6879 31.6208C38.9723 31.5977 39.1759 31.5829 39.4105 31.568L39.6369 31.5547C40.6027 31.5021 41.6337 31.5012 43.3173 31.5348L44.4753 31.559C46.796 31.6048 47.8422 31.5924 48.9576 31.4776C50.2534 31.3442 51.0974 30.4394 51.4433 29.099C51.7238 28.0126 51.6218 26.745 51.2311 26.1427C50.4509 24.94 49.2865 24.2156 48.2151 24.5494C47.8599 24.6601 47.4131 24.3993 47.1852 23.9714C47.0614 23.739 46.9985 23.5294 46.8953 23.0597L46.8453 22.8323C46.8165 22.7038 46.7953 22.6179 46.7687 22.5213C46.4052 21.206 45.4125 20.0828 44.1518 19.5604C43.5987 19.3312 43.0358 19.2307 42.5015 19.2849ZM43.9995 19.9302C45.1269 20.3973 46.0225 21.3969 46.3666 22.5674L46.3839 22.628C46.4087 22.7178 46.4287 22.7991 46.4565 22.9229L46.5182 23.2035C46.6221 23.6696 46.6923 23.8956 46.833 24.1597C47.1365 24.7295 47.746 25.0929 48.3016 24.9413L48.3349 24.9316C49.1944 24.6638 50.2024 25.2908 50.8963 26.3606C51.2186 26.8575 51.3116 28.0125 51.0569 28.9992C50.7492 30.1914 50.027 30.9657 48.9175 31.0799L48.7931 31.0923C47.7715 31.1906 46.7552 31.2024 44.6594 31.1627L43.1292 31.1313C41.5508 31.1015 40.5552 31.1043 39.6154 31.1555L39.2468 31.1781C38.9836 31.1957 38.7327 31.2154 38.3228 31.25L37.1929 31.345C34.7456 31.5379 33.2576 31.4455 31.8376 30.8478L31.775 30.8211C31.6564 30.7699 31.5378 30.7149 31.3823 30.6396L31.0311 30.4679C30.1237 30.0278 29.6686 29.8811 29.0625 29.9129C28.6481 29.9346 28.3383 30.0312 27.6955 30.2992L27.4113 30.4176C27.2988 30.4637 27.2203 30.4941 27.1303 30.5268C26.5625 30.7325 25.9583 30.8377 25.3544 30.8359C24.8863 30.8345 24.5254 30.7617 24.242 30.588C23.9238 30.393 23.7285 30.0449 23.7749 29.7356C23.8174 29.4526 24.0347 29.1996 24.4251 28.9269C25.9761 27.8437 27.915 27.4167 30.6695 27.3453L30.7816 27.3426C32.1946 27.3111 32.9098 27.1434 33.4268 26.4898C33.5732 26.3047 33.6595 26.1388 33.7994 25.8015L33.9076 25.5384C33.9624 25.4082 34.0011 25.3255 34.0492 25.2372C34.5855 24.2506 35.7413 23.7796 37.515 23.6009L37.6755 23.5856C38.7382 23.4909 39.3847 23.2444 39.6263 22.6056L39.6393 22.5697C40.193 20.9728 41.2714 19.8121 42.5427 19.6831C42.9863 19.6381 43.4609 19.7174 43.9349 19.904L43.9995 19.9302Z" fill="#00160A"/>
<path fill-rule="evenodd" clip-rule="evenodd" d="M85.8539 27.5623L85.8046 27.6117C85.767 27.6501 85.7297 27.69 85.6838 27.7409L85.5007 27.9468C85.3261 28.1423 85.2319 28.2354 85.1084 28.3286C84.8396 28.5315 84.5176 28.5942 84.3034 28.4743C84.2173 28.4261 84.1532 28.3629 84.0294 28.2108L83.9373 28.0972C83.8892 28.0391 83.8551 28.0008 83.8131 27.9585C83.2611 27.4023 82.297 27.3754 81.5631 27.8182C80.9888 28.1647 80.576 28.6956 80.1241 29.5402C79.9394 29.8852 79.5335 30.1238 79.0505 30.1967C78.8159 30.2322 78.5691 30.2348 78.2535 30.2114L78.0991 30.1985L77.614 30.1493C75.0612 29.8975 72.4505 30.2582 70.0616 31.1928C69.6846 31.3403 69.475 31.4725 69.3419 31.7186C69.1501 32.0734 69.3445 32.5883 69.7543 32.611C76.757 32.9991 83.7885 32.8665 90.7716 32.2148L91.2146 32.1732L91.5379 32.151C91.5679 32.1488 91.5928 32.1467 91.6237 32.144L91.7066 32.1357C92.3437 32.065 92.6936 31.8537 92.6936 31.324C92.6936 30.8124 92.4469 30.6725 91.8243 30.609L91.6995 30.5959C91.4584 30.5696 91.3483 30.5498 91.1995 30.5037C90.6715 30.3401 90.0424 29.999 89.9052 29.8286C89.7022 29.5766 89.6157 29.3394 89.4923 28.788L89.4533 28.6135C89.3235 28.0456 89.2203 27.7746 88.9759 27.4707C88.2625 26.5837 86.7399 26.6922 85.8539 27.5623ZM88.664 27.7211C88.8666 27.973 88.9531 28.2102 89.0763 28.7607L89.1153 28.9353C89.2453 29.5042 89.3485 29.7751 89.5934 30.0792C89.7915 30.325 90.4837 30.7004 91.0809 30.8855L91.1357 30.9019C91.2785 30.9431 91.3984 30.9641 91.6078 30.9879L91.8837 31.0175C92.2357 31.0592 92.2934 31.1093 92.2934 31.3237C92.2934 31.5846 92.1044 31.6941 91.6283 31.7414L91.5067 31.7519L91.2021 31.7726C91.1875 31.7737 91.1738 31.7748 91.1604 31.776L91.121 31.7796C84.0304 32.461 76.8884 32.6054 69.7761 32.2113C69.6949 32.2068 69.628 32.0297 69.6935 31.9085C69.7672 31.7721 69.9137 31.6797 70.207 31.565C72.497 30.6691 74.9967 30.3138 77.4457 30.5349L77.7452 30.5645L77.9928 30.5899C78.0507 30.5956 78.0985 30.5999 78.1514 30.6043C78.5287 30.6356 78.8227 30.6353 79.1099 30.5919C79.708 30.5016 80.2256 30.1974 80.4765 29.7286C80.8973 28.9422 81.2716 28.4608 81.7695 28.1603C82.357 27.8059 83.1193 27.8271 83.5289 28.24L83.5528 28.2647C83.5726 28.2857 83.5924 28.3083 83.6168 28.3375L83.6936 28.4316C83.8652 28.6449 83.9566 28.7384 84.1078 28.8231C84.4804 29.0315 84.9655 28.9371 85.3491 28.6476C85.49 28.5413 85.5934 28.4411 85.7643 28.2514L85.9776 28.0117C86.0394 27.9432 86.0833 27.8972 86.134 27.8474C86.8659 27.1286 88.1158 27.0395 88.664 27.7211Z" fill="#00160A"/>
<path fill-rule="evenodd" clip-rule="evenodd" d="M60.3966 20.0919C60.3633 18.193 60.1836 16.034 61.5022 14.667C61.2242 17.8249 60.9463 20.9827 60.6684 24.1406C61.1197 24.3646 60.4467 24.7394 60.0388 24.7469C58.5777 24.7739 60.4299 21.9909 60.3966 20.0919Z" fill="#FF6635"/>
</svg>
