<svg width="35" height="35" viewBox="0 0 35 35" fill="none" xmlns="http://www.w3.org/2000/svg">
<g clip-path="url(#clip0)">
<path d="M31.7793 27.2756C31.25 28.4984 30.6235 29.624 29.8976 30.6589C28.9081 32.0696 28.0979 33.0461 27.4736 33.5884C26.5057 34.4785 25.4687 34.9343 24.3582 34.9603C23.561 34.9603 22.5996 34.7334 21.4805 34.2733C20.3578 33.8152 19.326 33.5884 18.3825 33.5884C17.393 33.5884 16.3318 33.8152 15.1967 34.2733C14.0599 34.7334 13.1441 34.9732 12.4439 34.997C11.379 35.0424 10.3176 34.5736 9.25816 33.5884C8.58195 32.9986 7.73614 31.9875 6.7229 30.5552C5.63577 29.0256 4.74201 27.2519 4.04181 25.2297C3.29193 23.0455 2.91602 20.9305 2.91602 18.8828C2.91602 16.5372 3.42285 14.5142 4.43803 12.8189C5.23588 11.4572 6.2973 10.383 7.62574 9.59447C8.95419 8.80591 10.3896 8.40407 11.9354 8.37836C12.7812 8.37836 13.8903 8.63999 15.2687 9.15417C16.6431 9.67008 17.5257 9.93171 17.9126 9.93171C18.2019 9.93171 19.1823 9.62579 20.8443 9.0159C22.416 8.4503 23.7425 8.21611 24.8292 8.30836C27.7739 8.54601 29.9861 9.70681 31.4574 11.7981C28.8238 13.3938 27.5211 15.6288 27.547 18.4959C27.5708 20.7291 28.3809 22.5875 29.9732 24.0631C30.6948 24.7479 31.5006 25.2772 32.3972 25.6531C32.2027 26.217 31.9975 26.7571 31.7793 27.2756ZM25.0258 0.700199C25.0258 2.4506 24.3863 4.08494 23.1117 5.59767C21.5734 7.39602 19.7129 8.43518 17.6953 8.2712C17.6696 8.06121 17.6546 7.8402 17.6546 7.60795C17.6546 5.92757 18.3862 4.12923 19.6852 2.65884C20.3338 1.91436 21.1586 1.29533 22.1589 0.801522C23.157 0.31508 24.1011 0.0460673 24.9891 0C25.015 0.234001 25.0258 0.468017 25.0258 0.700177V0.700199Z" fill="#B3B3B3"/>
</g>
<defs>
<clipPath id="clip0">
<rect width="35" height="35" fill="white"/>
</clipPath>
</defs>
</svg>
