<svg width="35" height="35" viewBox="0 0 35 35" fill="none" xmlns="http://www.w3.org/2000/svg">
<g clip-path="url(#clip0)">
<path d="M34.6599 17.9036C34.6599 16.714 34.5634 15.518 34.3576 14.3477H17.8516V21.0866H27.3038C26.9116 23.26 25.6513 25.1827 23.8058 26.4044V30.777H29.445C32.7565 27.7291 34.6599 23.2279 34.6599 17.9036Z" fill="#4285F4"/>
<path d="M17.8513 35.0011C22.5712 35.0011 26.5515 33.4514 29.4516 30.7764L23.8122 26.4038C22.2432 27.4712 20.2177 28.0757 17.8578 28.0757C13.2923 28.0757 9.42123 24.9956 8.03229 20.8545H2.21289V25.3621C5.18368 31.2715 11.2346 35.0011 17.8513 35.0011Z" fill="#34A853"/>
<path d="M8.0261 20.8545C7.29305 18.681 7.29305 16.3275 8.0261 14.1541V9.64648H2.21313C-0.268959 14.5914 -0.268959 20.4172 2.21313 25.3621L8.0261 20.8545Z" fill="#FBBC04"/>
<path d="M17.8513 6.92659C20.3463 6.88801 22.7576 7.82683 24.5645 9.55014L29.5609 4.55382C26.3972 1.58303 22.1982 -0.0502629 17.8513 0.0011793C11.2346 0.0011793 5.18368 3.73074 2.21289 9.6466L8.02586 14.1542C9.40837 10.0067 13.2858 6.92659 17.8513 6.92659Z" fill="#EA4335"/>
</g>
<defs>
<clipPath id="clip0">
<rect width="35" height="35" fill="white"/>
</clipPath>
</defs>
</svg>
