<svg width="42" height="43" viewBox="0 0 42 43" fill="none" xmlns="http://www.w3.org/2000/svg">
<path d="M22.2192 36.3013L22.9628 36.9699L22.2192 36.3013ZM19.7808 36.3013L19.0372 36.9699L19.7808 36.3013ZM32.25 17.9167C32.25 19.0979 31.8223 20.5734 31.0542 22.237C30.2938 23.8842 29.2382 25.6346 28.0709 27.3429C25.7367 30.7586 23.0124 33.9237 21.4757 35.6326L22.9628 36.9699C24.5245 35.2333 27.3156 31.993 29.7221 28.4713C30.9252 26.7108 32.0464 24.8595 32.8701 23.0753C33.6862 21.3077 34.25 19.5223 34.25 17.9167H32.25ZM20.5243 35.6326C18.9876 33.9237 16.2633 30.7586 13.9291 27.3429C12.7618 25.6346 11.7062 23.8842 10.9458 22.237C10.1777 20.5734 9.75 19.0979 9.75 17.9167H7.75C7.75 19.5223 8.31384 21.3077 9.12993 23.0753C9.95362 24.8595 11.0748 26.7108 12.2779 28.4713C14.6845 31.993 17.4755 35.2333 19.0372 36.9699L20.5243 35.6326ZM9.75 17.9167C9.75 11.5201 14.8088 6.375 21 6.375V4.375C13.6602 4.375 7.75 10.4601 7.75 17.9167H9.75ZM21 6.375C27.1912 6.375 32.25 11.5201 32.25 17.9167H34.25C34.25 10.4601 28.3398 4.375 21 4.375V6.375ZM21.4757 35.6326C21.2095 35.9286 20.7905 35.9286 20.5243 35.6326L19.0372 36.9699C20.0979 38.1494 21.9021 38.1494 22.9628 36.9699L21.4757 35.6326ZM25.25 17.9167C25.25 20.3552 23.3252 22.2917 21 22.2917V24.2917C24.4738 24.2917 27.25 21.4152 27.25 17.9167H25.25ZM21 22.2917C18.6748 22.2917 16.75 20.3552 16.75 17.9167H14.75C14.75 21.4152 17.5262 24.2917 21 24.2917V22.2917ZM16.75 17.9167C16.75 15.4781 18.6748 13.5417 21 13.5417V11.5417C17.5262 11.5417 14.75 14.4182 14.75 17.9167H16.75ZM21 13.5417C23.3252 13.5417 25.25 15.4781 25.25 17.9167H27.25C27.25 14.4182 24.4738 11.5417 21 11.5417V13.5417Z" fill="black"/>
</svg>
