<svg width="42" height="42" viewBox="0 0 42 42" fill="none" xmlns="http://www.w3.org/2000/svg">
<path d="M23.292 34.25C22.9062 35.133 22.0252 35.75 21 35.75C19.9748 35.75 19.0938 35.133 18.708 34.25H18.7166H18.7328H18.749H18.7653H18.7816H18.798H18.8144H18.8308H18.8473H18.8638H18.8803H18.8969H18.9135H18.9302H18.9469H18.9636H18.9803H18.9971H19.0139H19.0308H19.0477H19.0646H19.0815H19.0985H19.1155H19.1326H19.1497H19.1668H19.1839H19.2011H19.2183H19.2355H19.2527H19.27H19.2873H19.3047H19.322H19.3394H19.3568H19.3743H19.3917H19.4092H19.4267H19.4443H19.4619H19.4794H19.4971H19.5147H19.5324H19.55H19.5677H19.5855H19.6032H19.621H19.6388H19.6566H19.6744H19.6922H19.7101H19.728H19.7459H19.7638H19.7817H19.7997H19.8177H19.8356H19.8536H19.8717H19.8897H19.9077H19.9258H19.9439H19.962H19.9801H19.9982H20.0163H20.0345H20.0526H20.0708H20.089H20.1071H20.1253H20.1436H20.1618H20.18H20.1982H20.2165H20.2347H20.253H20.2713H20.2895H20.3078H20.3261H20.3444H20.3627H20.381H20.3993H20.4176H20.436H20.4543H20.4726H20.491H20.5093H20.5276H20.546H20.5643H20.5826H20.601H20.6193H20.6377H20.656H20.6744H20.6927H20.711H20.7294H20.7477H20.7661H20.7844H20.8027H20.821H20.8394H20.8577H20.876H20.8943H20.9126H20.9309H20.9492H20.9675H20.9858H21.004H21.0223H21.0406H21.0588H21.077H21.0953H21.1135H21.1317H21.1499H21.1681H21.1863H21.2045H21.2226H21.2408H21.2589H21.277H21.2951H21.3132H21.3313H21.3494H21.3674H21.3855H21.4035H21.4215H21.4395H21.4574H21.4754H21.4933H21.5113H21.5292H21.5471H21.5649H21.5828H21.6006H21.6184H21.6362H21.654H21.6717H21.6895H21.7072H21.7249H21.7425H21.7602H21.7778H21.7954H21.813H21.8305H21.848H21.8655H21.883H21.9005H21.9179H21.9353H21.9527H21.97H21.9873H22.0046H22.0219H22.0391H22.0563H22.0735H22.0906H22.1077H22.1248H22.1419H22.1589H22.1759H22.1929H22.2098H22.2267H22.2436H22.2604H22.2772H22.294H22.3107H22.3274H22.344H22.3607H22.3772H22.3938H22.4103H22.4268H22.4432H22.4596H22.476H22.4923H22.5086H22.5249H22.5411H22.5573H22.5734H22.5895H22.6055H22.6216H22.6375H22.6534H22.6693H22.6852H22.701H22.7167H22.7324H22.7481H22.7637H22.7793H22.7948H22.8103H22.8258H22.8412H22.8565H22.8718H22.8871H22.9023H22.9174H22.9325H22.9476H22.9626H22.9776H22.9925H23.0073H23.0221H23.0369H23.0516H23.0663H23.0809H23.0954H23.1099H23.1244H23.1388H23.1531H23.1674H23.1816H23.1958H23.2099H23.224H23.238H23.2519H23.2658H23.2796H23.292Z" stroke="black" stroke-width="2"/>
<path d="M33.25 29.75V30.75C33.6188 30.75 33.9577 30.547 34.1317 30.2219C34.3057 29.8967 34.2866 29.5022 34.0821 29.1953L33.25 29.75ZM29.75 24.5H28.75C28.75 24.6974 28.8084 24.8904 28.918 25.0547L29.75 24.5ZM12.25 24.5L13.0821 25.0547C13.1916 24.8904 13.25 24.6974 13.25 24.5H12.25ZM8.75 29.75L7.91795 29.1953C7.71338 29.5022 7.69431 29.8967 7.86833 30.2219C8.04234 30.547 8.3812 30.75 8.75 30.75V29.75ZM13.25 17.5C13.25 13.2198 16.7198 9.75 21 9.75V7.75C15.6152 7.75 11.25 12.1152 11.25 17.5H13.25ZM21 9.75C25.2802 9.75 28.75 13.2198 28.75 17.5H30.75C30.75 12.1152 26.3848 7.75 21 7.75V9.75ZM12.25 30.75H29.75V28.75H12.25V30.75ZM29.75 30.75H33.25V28.75H29.75V30.75ZM30.75 24.5V17.5H28.75V24.5H30.75ZM34.0821 29.1953L30.5821 23.9453L28.918 25.0547L32.418 30.3047L34.0821 29.1953ZM11.25 17.5V24.5H13.25V17.5H11.25ZM11.4179 23.9453L7.91795 29.1953L9.58205 30.3047L13.0821 25.0547L11.4179 23.9453ZM8.75 30.75H12.25V28.75H8.75V30.75ZM22 8.75V3.5H20V8.75H22Z" fill="black"/>
<circle cx="28" cy="12" r="6" fill="#FF6635"/>
</svg>
