<svg width="27" height="29" viewBox="0 0 27 29" fill="none" xmlns="http://www.w3.org/2000/svg">
<path fill-rule="evenodd" clip-rule="evenodd" d="M13.5 2.63636C10.5177 2.63636 8.10002 4.99704 8.10002 7.90909C8.10002 10.8211 10.5177 13.1818 13.5 13.1818C16.4823 13.1818 18.9 10.8211 18.9 7.90909C18.9 4.99704 16.4823 2.63636 13.5 2.63636ZM5.40002 7.90909C5.40002 3.54102 9.02651 0 13.5 0C17.9735 0 21.6 3.54102 21.6 7.90909C21.6 12.2772 17.9735 15.8182 13.5 15.8182C9.02651 15.8182 5.40002 12.2772 5.40002 7.90909ZM3.29986 26.3636H23.7002C21.8248 22.4282 17.9329 19.7727 13.5 19.7727C9.06711 19.7727 5.17523 22.4282 3.29986 26.3636ZM0.0556101 27.3075C1.82998 21.4588 7.13983 17.1364 13.5 17.1364C19.8603 17.1364 25.1701 21.4588 26.9444 27.3075C27.0654 27.7062 26.9865 28.1373 26.7318 28.4705C26.4769 28.8037 26.0759 29 25.65 29H1.35002C0.924093 29 0.523156 28.8037 0.268316 28.4705C0.0134767 28.1373 -0.0653635 27.7062 0.0556101 27.3075Z" fill="black"/>
</svg>
