<svg width="32" height="32" viewBox="0 0 32 32" fill="none" xmlns="http://www.w3.org/2000/svg">
<path fill-rule="evenodd" clip-rule="evenodd" d="M27.8338 31.6101L3.75586 7.5321L5.64147 5.64648L29.7194 29.7243L27.8338 31.6101Z" fill="black"/>
<path fill-rule="evenodd" clip-rule="evenodd" d="M21.3346 9.33398C21.3346 6.38846 18.9468 4.00065 16.0013 4.00065C13.7798 4.00065 11.8756 5.35885 11.0736 7.29014L9.08845 5.30496C10.4758 2.92977 13.0522 1.33398 16.0013 1.33398C20.4196 1.33398 24.0013 4.9157 24.0013 9.33398C24.0013 12.271 22.4186 14.8383 20.0597 16.2297L18.078 14.248C19.9918 13.4381 21.3346 11.5429 21.3346 9.33398ZM16.0013 17.334C11.583 17.334 8.00132 13.7523 8.00132 9.33398C8.00132 9.08261 8.01291 8.83396 8.03559 8.5885L11.2981 11.851C11.8717 12.9206 12.7995 13.7719 13.9248 14.248L16.9545 17.2777C16.642 17.3149 16.3238 17.334 16.0013 17.334ZM16.0013 18.6673C9.71965 18.6673 4.47536 23.0394 2.72289 28.9553C2.60341 29.3586 2.68128 29.7947 2.93297 30.1317C3.18467 30.4688 3.58065 30.6673 4.00132 30.6673H28.0013C28.422 30.6673 28.818 30.4688 29.0697 30.1317C29.1745 29.9915 29.249 29.834 29.292 29.6688L18.532 18.9089C17.7124 18.7502 16.8668 18.6673 16.0013 18.6673ZM16.0013 21.334C20.3794 21.334 24.2233 24.02 26.0756 28.0006H5.92709C7.77931 24.02 11.6231 21.334 16.0013 21.334Z" fill="black"/>
</svg>
